999
Created by JSCAD
  0
SECTION
  2
HEADER
  9
$ACADVER
  1
AC1027
  9
$ACADMAINTVER
 70
8
  9
$DWGCODEPAGE
  3
ANSI_1252
  9
$LASTSAVEDBY
  1
unknown
  9
$REQUIREDVERSIONS
160
0
  9
$INSBASE
 10
0.0
 20
0.0
 30
0.0
  9
$EXTMIN
 10
1e+20
 20
1e+20
 30
1e+20
  9
$EXTMAX
 10
-1e+20
 20
-1e+20
 30
-1e+20
  9
$LIMMIN
 10
0.0
 20
0.0
  9
$LIMMAX
 10
12.0
 20
9.0
  9
$ORTHOMODE
 70
0
  9
$REGENMODE
 70
1
  9
$FILLMODE
 70
1
  9
$QTEXTMODE
 70
0
  9
$MIRRTEXT
 70
0
  9
$LTSCALE
 40
1.0
  9
$ATTMODE
 70
1
  9
$TEXTSIZE
 40
0.2
  9
$TRACEWID
 40
0.05
  9
$TEXTSTYLE
  7
Notes
  9
$CLAYER
  8
0
  9
$CELTYPE
  6
ByLayer
  9
$CECOLOR
 62
256
  9
$CELTSCALE
 40
1.0
  9
$DISPSILH
 70
0
  9
$DIMSCALE
 40
1.0
  9
$DIMASZ
 40
3.0
  9
$DIMEXO
 40
1.5
  9
$DIMDLI
 40
6.0
  9
$DIMRND
 40
0.0
  9
$DIMDLE
 40
0.0
  9
$DIMEXE
 40
3.0
  9
$DIMTP
 40
0.0
  9
$DIMTM
 40
0.0
  9
$DIMTXT
 40
3.0
  9
$DIMCEN
 40
3.0
  9
$DIMTSZ
 40
0.0
  9
$DIMTOL
 70
0
  9
$DIMLIM
 70
0
  9
$DIMTIH
 70
0
  9
$DIMTOH
 70
0
  9
$DIMSE1
 70
0
  9
$DIMSE2
 70
0
  9
$DIMTAD
 70
1
  9
$DIMZIN
 70
3
  9
$DIMBLK
  1

  9
$DIMASO
 70
1
  9
$DIMSHO
 70
1
  9
$DIMPOST
  1

  9
$DIMAPOST
  1

  9
$DIMALT
 70
0
  9
$DIMALTD
 70
2
  9
$DIMALTF
 40
25.4
  9
$DIMLFAC
 40
1.0
  9
$DIMTOFL
 70
0
  9
$DIMTVP
 40
0.0
  9
$DIMTIX
 70
0
  9
$DIMSOXD
 70
0
  9
$DIMSAH
 70
0
  9
$DIMBLK1
  1

  9
$DIMBLK2
  1

  9
$DIMSTYLE
  2
Civil-Metric
  9
$DIMCLRD
 70
0
  9
$DIMCLRE
 70
0
  9
$DIMCLRT
 70
0
  9
$DIMTFAC
 40
1.0
  9
$DIMGAP
 40
2.0
  9
$DIMJUST
 70
0
  9
$DIMSD1
 70
0
  9
$DIMSD2
 70
0
  9
$DIMTOLJ
 70
1
  9
$DIMTZIN
 70
0
  9
$DIMALTZ
 70
0
  9
$DIMALTTZ
 70
0
  9
$DIMUPT
 70
0
  9
$DIMDEC
 70
2
  9
$DIMTDEC
 70
2
  9
$DIMALTU
 70
2
  9
$DIMALTTD
 70
2
  9
$DIMTXSTY
  7
Standard
  9
$DIMAUNIT
 70
0
  9
$DIMADEC
 70
2
  9
$DIMALTRND
 40
0.0
  9
$DIMAZIN
 70
2
  9
$DIMDSEP
 70
46
  9
$DIMATFIT
 70
3
  9
$DIMFRAC
 70
1
  9
$DIMLDRBLK
  1

  9
$DIMLUNIT
 70
2
  9
$DIMLWD
 70
-2
  9
$DIMLWE
 70
-2
  9
$DIMTMOVE
 70
0
  9
$DIMFXL
 40
1.0
  9
$DIMFXLON
 70
0
  9
$DIMJOGANG
 40
0.785398163397
  9
$DIMTFILL
 70
0
  9
$DIMTFILLCLR
 70
0
  9
$DIMARCSYM
 70
0
  9
$DIMLTYPE
  6

  9
$DIMLTEX1
  6

  9
$DIMLTEX2
  6

  9
$DIMTXTDIRECTION
 70
0
  9
$LUNITS
 70
2
  9
$LUPREC
 70
4
  9
$SKETCHINC
 40
0.1
  9
$FILLETRAD
 40
0.0
  9
$AUNITS
 70
4
  9
$AUPREC
 70
5
  9
$MENU
  1
.
  9
$ELEVATION
 40
0.0
  9
$PELEVATION
 40
0.0
  9
$THICKNESS
 40
0.0
  9
$LIMCHECK
 70
0
  9
$CHAMFERA
 40
0.0
  9
$CHAMFERB
 40
0.0
  9
$CHAMFERC
 40
0.0
  9
$CHAMFERD
 40
0.0
  9
$SKPOLY
 70
0
  9
$TDCREATE
 40
2457986.69756
  9
$TDUCREATE
 40
2455631.2632
  9
$TDUPDATE
 40
2457986.69756
  9
$TDUUPDATE
 40
2456436.43179
  9
$TDINDWG
 40
0.0003490741
  9
$TDUSRTIMER
 40
0.0003487153
  9
$USRTIMER
 70
1
  9
$ANGBASE
 50
0.0
  9
$ANGDIR
 70
0
  9
$PDMODE
 70
0
  9
$PDSIZE
 40
0.0
  9
$PLINEWID
 40
0.0
  9
$SPLFRAME
 70
0
  9
$SPLINETYPE
 70
6
  9
$SPLINESEGS
 70
8
  9
$HANDSEED
  5
5C7
  9
$SURFTAB1
 70
6
  9
$SURFTAB2
 70
6
  9
$SURFTYPE
 70
6
  9
$SURFU
 70
6
  9
$SURFV
 70
6
  9
$UCSBASE
  2

  9
$UCSNAME
  2

  9
$UCSORG
 10
0.0
 20
0.0
 30
0.0
  9
$UCSXDIR
 10
1.0
 20
0.0
 30
0.0
  9
$UCSYDIR
 10
0.0
 20
1.0
 30
0.0
  9
$UCSORTHOREF
  2

  9
$UCSORTHOVIEW
 70
0
  9
$UCSORGTOP
 10
0.0
 20
0.0
 30
0.0
  9
$UCSORGBOTTOM
 10
0.0
 20
0.0
 30
0.0
  9
$UCSORGLEFT
 10
0.0
 20
0.0
 30
0.0
  9
$UCSORGRIGHT
 10
0.0
 20
0.0
 30
0.0
  9
$UCSORGFRONT
 10
0.0
 20
0.0
 30
0.0
  9
$UCSORGBACK
 10
0.0
 20
0.0
 30
0.0
  9
$PUCSBASE
  2

  9
$PUCSNAME
  2

  9
$PUCSORG
 10
0.0
 20
0.0
 30
0.0
  9
$PUCSXDIR
 10
1.0
 20
0.0
 30
0.0
  9
$PUCSYDIR
 10
0.0
 20
1.0
 30
0.0
  9
$PUCSORTHOREF
  2

  9
$PUCSORTHOVIEW
 70
0
  9
$PUCSORGTOP
 10
0.0
 20
0.0
 30
0.0
  9
$PUCSORGBOTTOM
 10
0.0
 20
0.0
 30
0.0
  9
$PUCSORGLEFT
 10
0.0
 20
0.0
 30
0.0
  9
$PUCSORGRIGHT
 10
0.0
 20
0.0
 30
0.0
  9
$PUCSORGFRONT
 10
0.0
 20
0.0
 30
0.0
  9
$PUCSORGBACK
 10
0.0
 20
0.0
 30
0.0
  9
$USERI1
 70
0
  9
$USERI2
 70
0
  9
$USERI3
 70
0
  9
$USERI4
 70
0
  9
$USERI5
 70
0
  9
$USERR1
 40
0.0
  9
$USERR2
 40
0.0
  9
$USERR3
 40
0.0
  9
$USERR4
 40
0.0
  9
$USERR5
 40
0.0
  9
$WORLDVIEW
 70
1
  9
$SHADEDGE
 70
3
  9
$SHADEDIF
 70
70
  9
$TILEMODE
 70
1
  9
$MAXACTVP
 70
64
  9
$PINSBASE
 10
0.0
 20
0.0
 30
0.0
  9
$PLIMCHECK
 70
0
  9
$PEXTMIN
 10
0.628866766397
 20
0.799999952316
 30
0.0
  9
$PEXTMAX
 10
9.02886638493
 20
7.19999957085
 30
0.0
  9
$PLIMMIN
 10
-0.700541819174
 20
-0.228100386192
  9
$PLIMMAX
 10
10.2994579405
 20
8.27189937351
  9
$UNITMODE
 70
0
  9
$VISRETAIN
 70
1
  9
$PLINEGEN
 70
0
  9
$PSLTSCALE
 70
1
  9
$TREEDEPTH
 70
3020
  9
$CMLSTYLE
  2
Standard
  9
$CMLJUST
 70
0
  9
$CMLSCALE
 40
1.0
  9
$PROXYGRAPHICS
 70
1
  9
$MEASUREMENT
 70
1
  9
$CELWEIGHT
370
-1
  9
$ENDCAPS
280
0
  9
$JOINSTYLE
280
0
  9
$LWDISPLAY
290
0
  9
$INSUNITS
 70
4
  9
$HYPERLINKBASE
  1

  9
$STYLESHEET
  1

  9
$XEDIT
290
1
  9
$CEPSNTYPE
380
0
  9
$PSTYLEMODE
290
1
  9
$FINGERPRINTGUID
  2
{39DB1BDD-BC6C-46D3-A333-DFCC0DC4782D}
  9
$VERSIONGUID
  2
{69EEBB2D-7039-498F-9366-3F994E4A07E7}
  9
$EXTNAMES
290
1
  9
$PSVPSCALE
 40
0.0
  9
$OLESTARTUP
290
0
  9
$SORTENTS
280
127
  9
$INDEXCTL
280
0
  9
$HIDETEXT
280
1
  9
$XCLIPFRAME
280
0
  9
$HALOGAP
280
0
  9
$OBSCOLOR
 70
257
  9
$OBSLTYPE
280
0
  9
$INTERSECTIONDISPLAY
280
0
  9
$INTERSECTIONCOLOR
 70
257
  9
$DIMASSOC
280
2
  9
$PROJECTNAME
  1

  9
$CAMERADISPLAY
290
0
  9
$LENSLENGTH
 40
50.0
  9
$CAMERAHEIGHT
 40
0.0
  9
$STEPSPERSEC
 40
2.0
  9
$STEPSIZE
 40
6.0
  9
$3DDWFPREC
 40
2.0
  9
$PSOLWIDTH
 40
0.25
  9
$PSOLHEIGHT
 40
4.0
  9
$LOFTANG1
 40
1.57079632679
  9
$LOFTANG2
 40
1.57079632679
  9
$LOFTMAG1
 40
0.0
  9
$LOFTMAG2
 40
0.0
  9
$LOFTPARAM
 70
7
  9
$LOFTNORMALS
280
1
  9
$LATITUDE
 40
37.795
  9
$LONGITUDE
 40
-122.394
  9
$NORTHDIRECTION
 40
0.0
  9
$TIMEZONE
 70
-8000
  9
$LIGHTGLYPHDISPLAY
280
1
  9
$TILEMODELIGHTSYNCH
280
1
  9
$CMATERIAL
347
96
  9
$SOLIDHIST
280
1
  9
$SHOWHIST
280
1
  9
$DWFFRAME
280
2
  9
$DGNFRAME
280
0
  9
$REALWORLDSCALE
290
1
  9
$INTERFERECOLOR
 62
1
  9
$INTERFEREOBJVS
345
A3
  9
$INTERFEREVPVS
346
A0
  9
$CSHADOW
280
0
  9
$SHADOWPLANELOCATION
 40
0.0
  0
ENDSEC
  0
SECTION
  2
CLASSES
  0
CLASS
  1
ACDBDICTIONARYWDFLT
  2
AcDbDictionaryWithDefault
  3
ObjectDBX Classes
 90
0
 91
1
280
0
281
0
  0
CLASS
  1
DICTIONARYVAR
  2
AcDbDictionaryVar
  3
ObjectDBX Classes
 90
0
 91
15
280
0
281
0
  0
CLASS
  1
TABLESTYLE
  2
AcDbTableStyle
  3
ObjectDBX Classes
 90
4095
 91
1
280
0
281
0
  0
CLASS
  1
MATERIAL
  2
AcDbMaterial
  3
ObjectDBX Classes
 90
1153
 91
3
280
0
281
0
  0
CLASS
  1
VISUALSTYLE
  2
AcDbVisualStyle
  3
ObjectDBX Classes
 90
4095
 91
26
280
0
281
0
  0
CLASS
  1
SCALE
  2
AcDbScale
  3
ObjectDBX Classes
 90
1153
 91
17
280
0
281
0
  0
CLASS
  1
MLEADERSTYLE
  2
AcDbMLeaderStyle
  3
ACDB_MLEADERSTYLE_CLASS
 90
4095
 91
3
280
0
281
0
  0
CLASS
  1
CELLSTYLEMAP
  2
AcDbCellStyleMap
  3
ObjectDBX Classes
 90
1152
 91
2
280
0
281
0
  0
CLASS
  1
EXACXREFPANELOBJECT
  2
ExAcXREFPanelObject
  3
EXAC_ESW
 90
1025
 91
0
280
0
281
0
  0
CLASS
  1
NPOCOLLECTION
  2
AcDbImpNonPersistentObjectsCollection
  3
ObjectDBX Classes
 90
1153
 91
0
280
0
281
0
  0
CLASS
  1
LAYER_INDEX
  2
AcDbLayerIndex
  3
ObjectDBX Classes
 90
0
 91
0
280
0
281
0
  0
CLASS
  1
SPATIAL_INDEX
  2
AcDbSpatialIndex
  3
ObjectDBX Classes
 90
0
 91
0
280
0
281
0
  0
CLASS
  1
IDBUFFER
  2
AcDbIdBuffer
  3
ObjectDBX Classes
 90
0
 91
0
280
0
281
0
  0
CLASS
  1
DIMASSOC
  2
AcDbDimAssoc
  3
"AcDbDimAssoc|Product Desc:     AcDim ARX App For Dimension|Company:          Autodesk, Inc.|WEB Address:      www.autodesk.com"
 90
0
 91
0
280
0
281
0
  0
CLASS
  1
ACDBSECTIONVIEWSTYLE
  2
AcDbSectionViewStyle
  3
ObjectDBX Classes
 90
1025
 91
1
280
0
281
0
  0
CLASS
  1
ACDBDETAILVIEWSTYLE
  2
AcDbDetailViewStyle
  3
ObjectDBX Classes
 90
1025
 91
1
280
0
281
0
  0
CLASS
  1
IMAGEDEF
  2
AcDbRasterImageDef
  3
ISM
 90
0
 91
1
280
0
281
0
  0
CLASS
  1
RASTERVARIABLES
  2
AcDbRasterVariables
  3
ISM
 90
0
 91
1
280
0
281
0
  0
CLASS
  1
IMAGEDEF_REACTOR
  2
AcDbRasterImageDefReactor
  3
ISM
 90
1
 91
1
280
0
281
0
  0
CLASS
  1
IMAGE
  2
AcDbRasterImage
  3
ISM
 90
2175
 91
1
280
0
281
1
  0
CLASS
  1
PDFDEFINITION
  2
AcDbPdfDefinition
  3
ObjectDBX Classes
 90
1153
 91
1
280
0
281
0
  0
CLASS
  1
PDFUNDERLAY
  2
AcDbPdfReference
  3
ObjectDBX Classes
 90
4095
 91
1
280
0
281
1
  0
CLASS
  1
DWFDEFINITION
  2
AcDbDwfDefinition
  3
ObjectDBX Classes
 90
1153
 91
2
280
0
281
0
  0
CLASS
  1
DWFUNDERLAY
  2
AcDbDwfReference
  3
ObjectDBX Classes
 90
1153
 91
1
280
0
281
1
  0
CLASS
  1
DGNDEFINITION
  2
AcDbDgnDefinition
  3
ObjectDBX Classes
 90
1153
 91
2
280
0
281
0
  0
CLASS
  1
DGNUNDERLAY
  2
AcDbDgnReference
  3
ObjectDBX Classes
 90
1153
 91
1
280
0
281
1
  0
ENDSEC
  0
SECTION
  2
TABLES
  0
TABLE
  2
VPORT
  5
8
330
0
100
AcDbSymbolTable
 70
0
  0
ENDTAB
  0
TABLE
  2
LTYPE
  5
5F
330
0
100
AcDbSymbolTable
 70
7
  0
LTYPE
  5
14
330
5F
100
AcDbSymbolTableRecord
100
AcDbLinetypeTableRecord
  2
ByBlock
 70
0
  3

 72
65
 73
0
 40
0.0
  0
LTYPE
  5
15
330
5F
100
AcDbSymbolTableRecord
100
AcDbLinetypeTableRecord
  2
ByLayer
 70
0
  3

 72
65
 73
0
 40
0.0
  0
LTYPE
  5
16
330
5F
100
AcDbSymbolTableRecord
100
AcDbLinetypeTableRecord
  2
Continuous
 70
0
  3
Solid line
 72
65
 73
0
 40
0.0
  0
LTYPE
  5
1B1
330
5F
100
AcDbSymbolTableRecord
100
AcDbLinetypeTableRecord
  2
CENTER
 70
0
  3
Center ____ _ ____ _ ____ _ ____ _ ____ _ ____
 72
65
 73
4
 40
2.0
 49
1.25
 74
0
 49
-0.25
 74
0
 49
0.25
 74
0
 49
-0.25
 74
0
  0
LTYPE
  5
1B2
330
5F
100
AcDbSymbolTableRecord
100
AcDbLinetypeTableRecord
  2
DASHED
 70
0
  3
Dashed __ __ __ __ __ __ __ __ __ __ __ __ __ _
 72
65
 73
2
 40
0.75
 49
0.5
 74
0
 49
-0.25
 74
0
  0
LTYPE
  5
1B3
330
5F
100
AcDbSymbolTableRecord
100
AcDbLinetypeTableRecord
  2
PHANTOM
 70
0
  3
Phantom ______  __  __  ______  __  __  ______
 72
65
 73
6
 40
2.5
 49
1.25
 74
0
 49
-0.25
 74
0
 49
0.25
 74
0
 49
-0.25
 74
0
 49
0.25
 74
0
 49
-0.25
 74
0
  0
LTYPE
  5
39E
330
5F
100
AcDbSymbolTableRecord
100
AcDbLinetypeTableRecord
  2
HIDDEN
 70
0
  3
Hidden __ __ __ __ __ __ __ __ __ __ __ __ __ __
 72
65
 73
2
 40
9.525
 49
6.35
 74
0
 49
-3.175
 74
0
  0
ENDTAB
  0
TABLE
  2
LAYER
  5
2
330
0
100
AcDbSymbolTable
 70
3
  0
LAYER
  5
10
330
2
100
AcDbSymbolTableRecord
100
AcDbLayerTableRecord
  2
0
 70
0
  6
Continuous
370
-3
390
F
347
98
348
0
  0
LAYER
  5
1B4
330
2
100
AcDbSymbolTableRecord
100
AcDbLayerTableRecord
  2
View Port
 70
0
  6
Continuous
290
0
370
-3
390
F
347
98
348
0
  0
LAYER
  5
21D
330
2
100
AcDbSymbolTableRecord
100
AcDbLayerTableRecord
  2
Defpoints
 70
0
  6
Continuous
290
0
370
-3
390
F
347
98
348
0
  0
ENDTAB
  0
TABLE
  2
STYLE
  5
3
330
0
100
AcDbSymbolTable
 70
3
  0
STYLE
  5
11
330
3
100
AcDbSymbolTableRecord
100
AcDbTextStyleTableRecord
  2
Standard
 70
0
 40
0.0
 41
1.0
 50
0.0
 71
0
 42
0.2
  3
arial.ttf
  4

  0
STYLE
  5
DC
330
3
100
AcDbSymbolTableRecord
100
AcDbTextStyleTableRecord
  2
Annotative
 70
0
 40
0.0
 41
1.0
 50
0.0
 71
0
 42
0.2
  3
arial.ttf
  4

  0
STYLE
  5
178
330
3
100
AcDbSymbolTableRecord
100
AcDbTextStyleTableRecord
  2
Notes
 70
0
 40
3.0
 41
1.0
 50
0.0
 71
0
 42
0.2
  3
arial.ttf
  4

  0
ENDTAB
  0
TABLE
  2
VIEW
  5
6
330
0
100
AcDbSymbolTable
 70
0
  0
ENDTAB
  0
TABLE
  2
UCS
  5
7
330
0
100
AcDbSymbolTable
 70
0
  0
ENDTAB
  0
TABLE
  2
APPID
  5
9
330
0
100
AcDbSymbolTable
 70
12
  0
APPID
  5
12
330
9
100
AcDbSymbolTableRecord
100
AcDbRegAppTableRecord
  2
ACAD
 70
0
  0
APPID
  5
DD
330
9
100
AcDbSymbolTableRecord
100
AcDbRegAppTableRecord
  2
AcadAnnoPO
 70
0
  0
APPID
  5
DE
330
9
100
AcDbSymbolTableRecord
100
AcDbRegAppTableRecord
  2
AcadAnnotative
 70
0
  0
APPID
  5
DF
330
9
100
AcDbSymbolTableRecord
100
AcDbRegAppTableRecord
  2
ACAD_DSTYLE_DIMJAG
 70
0
  0
APPID
  5
E0
330
9
100
AcDbSymbolTableRecord
100
AcDbRegAppTableRecord
  2
ACAD_DSTYLE_DIMTALN
 70
0
  0
APPID
  5
107
330
9
100
AcDbSymbolTableRecord
100
AcDbRegAppTableRecord
  2
ACAD_MLEADERVER
 70
0
  0
APPID
  5
1B5
330
9
100
AcDbSymbolTableRecord
100
AcDbRegAppTableRecord
  2
AcAecLayerStandard
 70
0
  0
APPID
  5
1BA
330
9
100
AcDbSymbolTableRecord
100
AcDbRegAppTableRecord
  2
ACAD_EXEMPT_FROM_CAD_STANDARDS
 70
0
  0
APPID
  5
237
330
9
100
AcDbSymbolTableRecord
100
AcDbRegAppTableRecord
  2
ACAD_DSTYLE_DIMBREAK
 70
0
  0
APPID
  5
28E
330
9
100
AcDbSymbolTableRecord
100
AcDbRegAppTableRecord
  2
ACAD_PSEXT
 70
0
  0
APPID
  5
4B0
330
9
100
AcDbSymbolTableRecord
100
AcDbRegAppTableRecord
  2
ACAD_NAV_VCDISPLAY
 70
0
  0
APPID
  5
4E3
330
9
100
AcDbSymbolTableRecord
100
AcDbRegAppTableRecord
  2
HATCHBACKGROUNDCOLOR
 70
0
  0
ENDTAB
  0
TABLE
  2
DIMSTYLE
  5
A
330
0
100
AcDbSymbolTable
 70
3
100
AcDbDimStyleTable
 71
3
340
242
340
27
340
E1
  0
DIMSTYLE
105
27
330
A
100
AcDbSymbolTableRecord
100
AcDbDimStyleTableRecord
  2
Standard
 70
0
 41
3.0
 42
2.0
 43
9.0
 44
5.0
140
3.0
141
2.0
147
2.0
340
11
1001
ACAD_DSTYLE_DIMJAG
1070
388
1040
38.0
1001
ACAD_DSTYLE_DIMBREAK
1070
391
1040
90.0
1001
ACAD_DSTYLE_DIMTALN
1070
392
1070
0
  0
DIMSTYLE
105
E1
330
A
100
AcDbSymbolTableRecord
100
AcDbDimStyleTableRecord
  2
Annotative
 70
0
 40
0.0
 41
3.0
 42
2.5
 43
10.0
 44
5.0
140
3.0
141
2.0
147
2.0
340
11
1001
AcadAnnotative
1000
AnnotativeData
1002
{
1070
1
1070
1
1002
}
1001
ACAD_DSTYLE_DIMJAG
1070
388
1040
38.0
1001
ACAD_DSTYLE_DIMBREAK
1070
391
1040
90.0
1001
ACAD_DSTYLE_DIMTALN
1070
392
1070
0
  0
DIMSTYLE
105
242
330
A
100
AcDbSymbolTableRecord
100
AcDbDimStyleTableRecord
  2
Civil-Metric
 70
0
 41
3.0
 42
1.5
 43
6.0
 44
3.0
 73
0
 74
0
 77
1
 78
3
 79
2
140
3.0
141
3.0
147
2.0
179
2
271
2
272
2
276
1
340
11
1001
ACAD_DSTYLE_DIMBREAK
1070
391
1040
3.0
1001
ACAD_DSTYLE_DIMJAG
1070
388
1040
38.0
1001
ACAD_DSTYLE_DIMTALN
1070
392
1070
0
  0
ENDTAB
  0
TABLE
  2
BLOCK_RECORD
  5
1
330
0
100
AcDbSymbolTable
 70
4
  0
BLOCK_RECORD
  5
1F
330
1
100
AcDbSymbolTableRecord
100
AcDbBlockTableRecord
  2
*Model_Space
340
530
 70
0
280
1
281
0
  0
BLOCK_RECORD
  5
58
330
1
100
AcDbSymbolTableRecord
100
AcDbBlockTableRecord
  2
*Paper_Space
340
531
 70
0
280
1
281
0
  0
BLOCK_RECORD
  5
238
330
1
100
AcDbSymbolTableRecord
100
AcDbBlockTableRecord
  2
_ArchTick
340
0
 70
0
280
1
281
0
  0
BLOCK_RECORD
  5
23C
330
1
100
AcDbSymbolTableRecord
100
AcDbBlockTableRecord
  2
_Open30
340
0
 70
0
280
1
281
0
  0
ENDTAB
  0
ENDSEC
  0
SECTION
  2
BLOCKS
  0
BLOCK
  5
23A
330
238
100
AcDbEntity
  8
0
100
AcDbBlockBegin
  2
_ArchTick
 70
0
 10
0.0
 20
0.0
 30
0.0
  3
_ArchTick
  1

  0
ENDBLK
  5
23B
330
238
100
AcDbEntity
  8
0
100
AcDbBlockEnd
  0
BLOCK
  5
20
330
1F
100
AcDbEntity
  8
0
100
AcDbBlockBegin
  2
*Model_Space
 70
0
 10
0.0
 20
0.0
 30
0.0
  3
*Model_Space
  1

  0
ENDBLK
  5
21
330
1F
100
AcDbEntity
  8
0
100
AcDbBlockEnd
  0
BLOCK
  5
5A
330
58
100
AcDbEntity
 67
1
  8
0
100
AcDbBlockBegin
  2
*Paper_Space
 70
0
 10
0.0
 20
0.0
 30
0.0
  3
*Paper_Space
  1

  0
ENDBLK
  5
5B
330
58
100
AcDbEntity
 67
1
  8
0
100
AcDbBlockEnd
  0
BLOCK
  5
240
330
23C
100
AcDbEntity
  8
0
100
AcDbBlockBegin
  2
_Open30
 70
0
 10
0.0
 20
0.0
 30
0.0
  3
_Open30
  1

  0
ENDBLK
  5
241
330
23C
100
AcDbEntity
  8
0
100
AcDbBlockEnd
  0
ENDSEC
  0
SECTION
  2
ENTITIES
  0
LWPOLYLINE
  5
CAD00001
  100
AcDbEntity
  3
CAD00001
  8
0
  67
0
  62
250
  100
AcDbPolyline
  90
189
  70
1
  10
9.899999999999999
  20
-1.4899999999999984
  10
9.920000000000002
  20
-1.4899999999999984
  10
9.93
  20
-1.4699999999999989
  10
9.950000000000003
  20
-1.4599999999999973
  10
9.950000000000003
  20
-1.4399999999999977
  10
9.96
  20
-1.4199999999999982
  10
9.96
  20
1.5
  10
17.800000000000004
  20
1.5
  10
17.800000000000004
  20
-1.4199999999999982
  10
17.810000000000002
  20
-1.4399999999999977
  10
17.810000000000002
  20
-1.4599999999999973
  10
17.83
  20
-1.4699999999999989
  10
17.840000000000003
  20
-1.4899999999999984
  10
17.86
  20
-1.4899999999999984
  10
17.880000000000003
  20
-1.5
  10
25.880000000000003
  20
-1.5
  10
25.900000000000002
  20
-1.4899999999999984
  10
25.92
  20
-1.4899999999999984
  10
25.930000000000003
  20
-1.4699999999999989
  10
25.950000000000003
  20
-1.4599999999999973
  10
25.950000000000003
  20
-1.4399999999999977
  10
25.96
  20
-1.4199999999999982
  10
25.96
  20
1.5
  10
33.8
  20
1.5
  10
33.8
  20
-1.4199999999999982
  10
33.81
  20
-1.4399999999999977
  10
33.81
  20
-1.4599999999999973
  10
33.83
  20
-1.4699999999999989
  10
33.84
  20
-1.4899999999999984
  10
33.86
  20
-1.4899999999999984
  10
33.88
  20
-1.5
  10
41.88
  20
-1.5
  10
41.900000000000006
  20
-1.4899999999999984
  10
41.92
  20
-1.4899999999999984
  10
41.93
  20
-1.4699999999999989
  10
41.95
  20
-1.4599999999999973
  10
41.95
  20
-1.4399999999999977
  10
41.96
  20
-1.4199999999999982
  10
41.96
  20
1.5
  10
49.800000000000004
  20
1.5
  10
49.800000000000004
  20
-1.4199999999999982
  10
49.81
  20
-1.4399999999999977
  10
49.81
  20
-1.4599999999999973
  10
49.830000000000005
  20
-1.4699999999999989
  10
49.84
  20
-1.4899999999999984
  10
49.86
  20
-1.4899999999999984
  10
49.88
  20
-1.5
  10
57.88
  20
-1.5
  10
57.900000000000006
  20
-1.4899999999999984
  10
57.92
  20
-1.4899999999999984
  10
57.93
  20
-1.4699999999999989
  10
57.95
  20
-1.4599999999999973
  10
57.95
  20
-1.4399999999999977
  10
57.96
  20
-1.4199999999999982
  10
57.96
  20
1.5
  10
65.8
  20
1.5
  10
65.8
  20
-1.4199999999999982
  10
65.81
  20
-1.4399999999999977
  10
65.81
  20
-1.4599999999999973
  10
65.83
  20
-1.4699999999999989
  10
65.84
  20
-1.4899999999999984
  10
65.86
  20
-1.4899999999999984
  10
65.88
  20
-1.5
  10
73.88
  20
-1.5
  10
73.9
  20
-1.4899999999999984
  10
73.92
  20
-1.4899999999999984
  10
73.93
  20
-1.4699999999999989
  10
73.95
  20
-1.4599999999999973
  10
73.95
  20
-1.4399999999999977
  10
73.96000000000001
  20
-1.4199999999999982
  10
73.96000000000001
  20
1.5
  10
81.80000000000001
  20
1.5
  10
81.80000000000001
  20
-1.4199999999999982
  10
81.81
  20
-1.4399999999999977
  10
81.81
  20
-1.4599999999999973
  10
81.83
  20
-1.4699999999999989
  10
81.84
  20
-1.4899999999999984
  10
81.86
  20
-1.4899999999999984
  10
81.88
  20
-1.5
  10
89.88
  20
-1.5
  10
89.9
  20
-1.4899999999999984
  10
89.92
  20
-1.4899999999999984
  10
89.93
  20
-1.4699999999999989
  10
89.95
  20
-1.4599999999999973
  10
89.95
  20
-1.4399999999999977
  10
89.96000000000001
  20
-1.4199999999999982
  10
89.96000000000001
  20
1.5
  10
97.80000000000001
  20
1.5
  10
97.80000000000001
  20
-1.4199999999999982
  10
97.81
  20
-1.4399999999999977
  10
97.81
  20
-1.4599999999999973
  10
97.83000000000001
  20
-1.4699999999999989
  10
97.84
  20
-1.4899999999999984
  10
97.86000000000001
  20
-1.4899999999999984
  10
97.88
  20
-1.5
  10
107.68
  20
-1.5
  10
107.7
  20
-1.4899999999999984
  10
107.72
  20
-1.4899999999999984
  10
107.73
  20
-1.4699999999999989
  10
107.75
  20
-1.4599999999999973
  10
107.75
  20
-1.4399999999999977
  10
107.76
  20
-1.4199999999999982
  10
107.76
  20
11.170000000000002
  10
107.75
  20
11.190000000000001
  10
107.75
  20
11.21
  10
107.73
  20
11.22
  10
107.72
  20
11.240000000000002
  10
107.7
  20
11.240000000000002
  10
107.68
  20
11.250000000000002
  10
104.76
  20
11.250000000000002
  10
104.76
  20
19.090000000000003
  10
107.68
  20
19.090000000000003
  10
107.7
  20
19.1
  10
107.72
  20
19.1
  10
107.73
  20
19.12
  10
107.75
  20
19.130000000000003
  10
107.75
  20
19.150000000000002
  10
107.76
  20
19.17
  10
107.76
  20
27.17
  10
107.75
  20
27.19
  10
107.75
  20
27.21
  10
107.73
  20
27.220000000000002
  10
107.72
  20
27.240000000000002
  10
107.7
  20
27.240000000000002
  10
107.68
  20
27.25
  10
104.76
  20
27.25
  10
104.76
  20
35.09
  10
107.68
  20
35.09
  10
107.7
  20
35.1
  10
107.72
  20
35.1
  10
107.73
  20
35.120000000000005
  10
107.75
  20
35.13
  10
107.75
  20
35.150000000000006
  10
107.76
  20
35.17
  10
107.76
  20
44.760000000000005
  10
107.75
  20
44.78
  10
107.75
  20
44.8
  10
107.73
  20
44.81
  10
107.72
  20
44.83
  10
107.7
  20
44.83
  10
107.68
  20
44.84
  10
0.0799999999999983
  20
44.84
  10
0.060000000000002274
  20
44.83
  10
0.03999999999999915
  20
44.83
  10
0.030000000000001137
  20
44.81
  10
0.00999999999999801
  20
44.8
  10
0.00999999999999801
  20
44.78
  10
0
  20
44.760000000000005
  10
0
  20
35.17
  10
0.00999999999999801
  20
35.150000000000006
  10
0.00999999999999801
  20
35.13
  10
0.030000000000001137
  20
35.120000000000005
  10
0.03999999999999915
  20
35.1
  10
0.060000000000002274
  20
35.1
  10
0.0799999999999983
  20
35.09
  10
3
  20
35.09
  10
3
  20
27.25
  10
0.0799999999999983
  20
27.25
  10
0.060000000000002274
  20
27.240000000000002
  10
0.03999999999999915
  20
27.240000000000002
  10
0.030000000000001137
  20
27.220000000000002
  10
0.00999999999999801
  20
27.21
  10
0.00999999999999801
  20
27.19
  10
0
  20
27.17
  10
0
  20
19.17
  10
0.00999999999999801
  20
19.150000000000002
  10
0.00999999999999801
  20
19.130000000000003
  10
0.030000000000001137
  20
19.12
  10
0.03999999999999915
  20
19.1
  10
0.060000000000002274
  20
19.1
  10
0.0799999999999983
  20
19.090000000000003
  10
3
  20
19.090000000000003
  10
3
  20
11.250000000000002
  10
0.0799999999999983
  20
11.250000000000002
  10
0.060000000000002274
  20
11.240000000000002
  10
0.03999999999999915
  20
11.240000000000002
  10
0.030000000000001137
  20
11.22
  10
0.00999999999999801
  20
11.21
  10
0.00999999999999801
  20
11.190000000000001
  10
0
  20
11.170000000000002
  10
0
  20
-1.4199999999999982
  10
0.00999999999999801
  20
-1.4399999999999977
  10
0.00999999999999801
  20
-1.4599999999999973
  10
0.030000000000001137
  20
-1.4699999999999989
  10
0.03999999999999915
  20
-1.4899999999999984
  10
0.060000000000002274
  20
-1.4899999999999984
  10
0.0799999999999983
  20
-1.5
  10
9.880000000000003
  20
-1.5
  10
9.899999999999999
  20
-1.4899999999999984
  0
LWPOLYLINE
  5
CAD00002
  100
AcDbEntity
  3
CAD00002
  8
0
  67
0
  62
250
  100
AcDbPolyline
  90
221
  70
1
  10
120.66000000000001
  20
-1.4899999999999984
  10
120.68
  20
-1.4899999999999984
  10
120.69000000000001
  20
-1.4699999999999989
  10
120.71000000000001
  20
-1.4599999999999973
  10
120.71000000000001
  20
-1.4399999999999977
  10
120.72000000000001
  20
-1.4199999999999982
  10
120.72000000000001
  20
1.5
  10
128.56
  20
1.5
  10
128.56
  20
-1.4199999999999982
  10
128.57000000000002
  20
-1.4399999999999977
  10
128.57000000000002
  20
-1.4599999999999973
  10
128.59
  20
-1.4699999999999989
  10
128.60000000000002
  20
-1.4899999999999984
  10
128.62
  20
-1.4899999999999984
  10
128.64000000000001
  20
-1.5
  10
136.64000000000001
  20
-1.5
  10
136.66000000000003
  20
-1.4899999999999984
  10
136.68
  20
-1.4899999999999984
  10
136.69000000000003
  20
-1.4699999999999989
  10
136.71
  20
-1.4599999999999973
  10
136.71
  20
-1.4399999999999977
  10
136.72000000000003
  20
-1.4199999999999982
  10
136.72000000000003
  20
1.5
  10
144.56
  20
1.5
  10
144.56
  20
-1.4199999999999982
  10
144.57000000000002
  20
-1.4399999999999977
  10
144.57000000000002
  20
-1.4599999999999973
  10
144.59
  20
-1.4699999999999989
  10
144.60000000000002
  20
-1.4899999999999984
  10
144.62
  20
-1.4899999999999984
  10
144.64000000000001
  20
-1.5
  10
152.64000000000001
  20
-1.5
  10
152.66000000000003
  20
-1.4899999999999984
  10
152.68
  20
-1.4899999999999984
  10
152.69000000000003
  20
-1.4699999999999989
  10
152.71
  20
-1.4599999999999973
  10
152.71
  20
-1.4399999999999977
  10
152.72000000000003
  20
-1.4199999999999982
  10
152.72000000000003
  20
1.5
  10
160.56
  20
1.5
  10
160.56
  20
-1.4199999999999982
  10
160.57000000000002
  20
-1.4399999999999977
  10
160.57000000000002
  20
-1.4599999999999973
  10
160.59
  20
-1.4699999999999989
  10
160.60000000000002
  20
-1.4899999999999984
  10
160.62
  20
-1.4899999999999984
  10
160.64000000000001
  20
-1.5
  10
168.64000000000001
  20
-1.5
  10
168.66000000000003
  20
-1.4899999999999984
  10
168.68
  20
-1.4899999999999984
  10
168.69000000000003
  20
-1.4699999999999989
  10
168.71
  20
-1.4599999999999973
  10
168.71
  20
-1.4399999999999977
  10
168.72000000000003
  20
-1.4199999999999982
  10
168.72000000000003
  20
1.5
  10
176.56
  20
1.5
  10
176.56
  20
-1.4199999999999982
  10
176.57000000000002
  20
-1.4399999999999977
  10
176.57000000000002
  20
-1.4599999999999973
  10
176.59
  20
-1.4699999999999989
  10
176.60000000000002
  20
-1.4899999999999984
  10
176.62
  20
-1.4899999999999984
  10
176.64000000000001
  20
-1.5
  10
184.64000000000001
  20
-1.5
  10
184.66000000000003
  20
-1.4899999999999984
  10
184.68
  20
-1.4899999999999984
  10
184.69000000000003
  20
-1.4699999999999989
  10
184.71
  20
-1.4599999999999973
  10
184.71
  20
-1.4399999999999977
  10
184.72000000000003
  20
-1.4199999999999982
  10
184.72000000000003
  20
1.5
  10
192.56
  20
1.5
  10
192.56
  20
-1.4199999999999982
  10
192.57000000000002
  20
-1.4399999999999977
  10
192.57000000000002
  20
-1.4599999999999973
  10
192.59
  20
-1.4699999999999989
  10
192.60000000000002
  20
-1.4899999999999984
  10
192.62
  20
-1.4899999999999984
  10
192.64000000000001
  20
-1.5
  10
200.64000000000001
  20
-1.5
  10
200.66000000000003
  20
-1.4899999999999984
  10
200.68
  20
-1.4899999999999984
  10
200.69000000000003
  20
-1.4699999999999989
  10
200.71
  20
-1.4599999999999973
  10
200.71
  20
-1.4399999999999977
  10
200.72000000000003
  20
-1.4199999999999982
  10
200.72000000000003
  20
1.5
  10
208.56
  20
1.5
  10
208.56
  20
-1.4199999999999982
  10
208.57000000000002
  20
-1.4399999999999977
  10
208.57000000000002
  20
-1.4599999999999973
  10
208.59000000000003
  20
-1.4699999999999989
  10
208.60000000000002
  20
-1.4899999999999984
  10
208.62
  20
-1.4899999999999984
  10
208.64000000000001
  20
-1.5
  10
218.44000000000003
  20
-1.5
  10
218.46
  20
-1.4899999999999984
  10
218.48000000000002
  20
-1.4899999999999984
  10
218.49
  20
-1.4699999999999989
  10
218.51000000000002
  20
-1.4599999999999973
  10
218.51000000000002
  20
-1.4399999999999977
  10
218.52
  20
-1.4199999999999982
  10
218.52
  20
9.170000000000002
  10
218.51000000000002
  20
9.190000000000001
  10
218.51000000000002
  20
9.21
  10
218.49
  20
9.220000000000002
  10
218.48000000000002
  20
9.240000000000002
  10
218.46
  20
9.240000000000002
  10
218.44000000000003
  20
9.25
  10
215.52
  20
9.25
  10
215.52
  20
17.090000000000003
  10
218.44000000000003
  20
17.090000000000003
  10
218.46
  20
17.1
  10
218.48000000000002
  20
17.1
  10
218.49
  20
17.12
  10
218.51000000000002
  20
17.130000000000003
  10
218.51000000000002
  20
17.150000000000002
  10
218.52
  20
17.17
  10
218.52
  20
25.17
  10
218.51000000000002
  20
25.19
  10
218.51000000000002
  20
25.21
  10
218.49
  20
25.220000000000002
  10
218.48000000000002
  20
25.240000000000002
  10
218.46
  20
25.240000000000002
  10
218.44000000000003
  20
25.25
  10
215.52
  20
25.25
  10
215.52
  20
33.09
  10
218.44000000000003
  20
33.09
  10
218.46
  20
33.1
  10
218.48000000000002
  20
33.1
  10
218.49
  20
33.120000000000005
  10
218.51000000000002
  20
33.13
  10
218.51000000000002
  20
33.15
  10
218.52
  20
33.17
  10
218.52
  20
41.17
  10
218.51000000000002
  20
41.19
  10
218.51000000000002
  20
41.21
  10
218.49
  20
41.22
  10
218.48000000000002
  20
41.24
  10
218.46
  20
41.24
  10
218.44000000000003
  20
41.25
  10
215.52
  20
41.25
  10
215.52
  20
49.09
  10
218.44000000000003
  20
49.09
  10
218.46
  20
49.1
  10
218.48000000000002
  20
49.1
  10
218.49
  20
49.120000000000005
  10
218.51000000000002
  20
49.13
  10
218.51000000000002
  20
49.150000000000006
  10
218.52
  20
49.17
  10
218.52
  20
56.760000000000005
  10
218.51000000000002
  20
56.78
  10
218.51000000000002
  20
56.8
  10
218.49
  20
56.81
  10
218.48000000000002
  20
56.83
  10
218.46
  20
56.83
  10
218.44000000000003
  20
56.84
  10
110.84
  20
56.84
  10
110.82000000000002
  20
56.83
  10
110.80000000000001
  20
56.83
  10
110.79000000000002
  20
56.81
  10
110.77000000000001
  20
56.8
  10
110.77000000000001
  20
56.78
  10
110.76000000000002
  20
56.760000000000005
  10
110.76000000000002
  20
49.17
  10
110.77000000000001
  20
49.150000000000006
  10
110.77000000000001
  20
49.13
  10
110.79000000000002
  20
49.120000000000005
  10
110.80000000000001
  20
49.1
  10
110.82000000000002
  20
49.1
  10
110.84
  20
49.09
  10
113.76000000000002
  20
49.09
  10
113.76000000000002
  20
41.25
  10
110.84
  20
41.25
  10
110.82000000000002
  20
41.24
  10
110.80000000000001
  20
41.24
  10
110.79000000000002
  20
41.22
  10
110.77000000000001
  20
41.21
  10
110.77000000000001
  20
41.19
  10
110.76000000000002
  20
41.17
  10
110.76000000000002
  20
33.17
  10
110.77000000000001
  20
33.15
  10
110.77000000000001
  20
33.13
  10
110.79000000000002
  20
33.120000000000005
  10
110.80000000000001
  20
33.1
  10
110.82000000000002
  20
33.1
  10
110.84
  20
33.09
  10
113.76000000000002
  20
33.09
  10
113.76000000000002
  20
25.25
  10
110.84
  20
25.25
  10
110.82000000000002
  20
25.240000000000002
  10
110.80000000000001
  20
25.240000000000002
  10
110.79000000000002
  20
25.220000000000002
  10
110.77000000000001
  20
25.21
  10
110.77000000000001
  20
25.19
  10
110.76000000000002
  20
25.17
  10
110.76000000000002
  20
17.17
  10
110.77000000000001
  20
17.150000000000002
  10
110.77000000000001
  20
17.130000000000003
  10
110.79000000000002
  20
17.12
  10
110.80000000000001
  20
17.1
  10
110.82000000000002
  20
17.1
  10
110.84
  20
17.090000000000003
  10
113.76000000000002
  20
17.090000000000003
  10
113.76000000000002
  20
9.25
  10
110.84
  20
9.25
  10
110.82000000000002
  20
9.240000000000002
  10
110.80000000000001
  20
9.240000000000002
  10
110.79000000000002
  20
9.220000000000002
  10
110.77000000000001
  20
9.21
  10
110.77000000000001
  20
9.190000000000001
  10
110.76000000000002
  20
9.170000000000002
  10
110.76000000000002
  20
-1.4199999999999982
  10
110.77000000000001
  20
-1.4399999999999977
  10
110.77000000000001
  20
-1.4599999999999973
  10
110.79000000000002
  20
-1.4699999999999989
  10
110.80000000000001
  20
-1.4899999999999984
  10
110.82000000000002
  20
-1.4899999999999984
  10
110.84
  20
-1.5
  10
120.64000000000001
  20
-1.5
  10
120.66000000000001
  20
-1.4899999999999984
  0
LWPOLYLINE
  5
CAD00003
  100
AcDbEntity
  3
CAD00003
  8
0
  67
0
  62
250
  100
AcDbPolyline
  90
5
  70
1
  10
194.72000000000003
  20
50.84
  10
194.72000000000003
  20
53.68000000000001
  10
206.56
  20
53.68000000000001
  10
206.56
  20
50.84
  10
194.72000000000003
  20
50.84
  0
LWPOLYLINE
  5
CAD00004
  100
AcDbEntity
  3
CAD00004
  8
0
  67
0
  62
250
  100
AcDbPolyline
  90
5
  70
1
  10
170.72000000000003
  20
50.84
  10
170.72000000000003
  20
53.68000000000001
  10
182.56
  20
53.68000000000001
  10
182.56
  20
50.84
  10
170.72000000000003
  20
50.84
  0
LWPOLYLINE
  5
CAD00005
  100
AcDbEntity
  3
CAD00005
  8
0
  67
0
  62
250
  100
AcDbPolyline
  90
5
  70
1
  10
146.72000000000003
  20
50.84
  10
146.72000000000003
  20
53.68000000000001
  10
158.56
  20
53.68000000000001
  10
158.56
  20
50.84
  10
146.72000000000003
  20
50.84
  0
LWPOLYLINE
  5
CAD00006
  100
AcDbEntity
  3
CAD00006
  8
0
  67
0
  62
250
  100
AcDbPolyline
  90
5
  70
1
  10
122.72000000000001
  20
50.84
  10
122.72000000000001
  20
53.68000000000001
  10
134.56
  20
53.68000000000001
  10
134.56
  20
50.84
  10
122.72000000000001
  20
50.84
  0
LWPOLYLINE
  5
CAD00007
  100
AcDbEntity
  3
CAD00007
  8
0
  67
0
  62
250
  100
AcDbPolyline
  90
173
  70
1
  10
234.72
  20
-1.4899999999999984
  10
234.73999999999998
  20
-1.4899999999999984
  10
234.75
  20
-1.4699999999999989
  10
234.76999999999998
  20
-1.4599999999999973
  10
234.76999999999998
  20
-1.4399999999999977
  10
234.77999999999997
  20
-1.4199999999999982
  10
234.77999999999997
  20
1.5
  10
242.61999999999998
  20
1.5
  10
242.61999999999998
  20
-1.4199999999999982
  10
242.63
  20
-1.4399999999999977
  10
242.63
  20
-1.4599999999999973
  10
242.64999999999998
  20
-1.4699999999999989
  10
242.66
  20
-1.4899999999999984
  10
242.67999999999998
  20
-1.4899999999999984
  10
242.7
  20
-1.5
  10
250.7
  20
-1.5
  10
250.72
  20
-1.4899999999999984
  10
250.73999999999998
  20
-1.4899999999999984
  10
250.75
  20
-1.4699999999999989
  10
250.76999999999998
  20
-1.4599999999999973
  10
250.76999999999998
  20
-1.4399999999999977
  10
250.78
  20
-1.4199999999999982
  10
250.78
  20
1.5
  10
258.62
  20
1.5
  10
258.62
  20
-1.4199999999999982
  10
258.63
  20
-1.4399999999999977
  10
258.63
  20
-1.4599999999999973
  10
258.65
  20
-1.4699999999999989
  10
258.65999999999997
  20
-1.4899999999999984
  10
258.68
  20
-1.4899999999999984
  10
258.7
  20
-1.5
  10
266.7
  20
-1.5
  10
266.71999999999997
  20
-1.4899999999999984
  10
266.74
  20
-1.4899999999999984
  10
266.75
  20
-1.4699999999999989
  10
266.77
  20
-1.4599999999999973
  10
266.77
  20
-1.4399999999999977
  10
266.78
  20
-1.4199999999999982
  10
266.78
  20
1.5
  10
274.62
  20
1.5
  10
274.62
  20
-1.4199999999999982
  10
274.63
  20
-1.4399999999999977
  10
274.63
  20
-1.4599999999999973
  10
274.65
  20
-1.4699999999999989
  10
274.65999999999997
  20
-1.4899999999999984
  10
274.68
  20
-1.4899999999999984
  10
274.7
  20
-1.5
  10
282.7
  20
-1.5
  10
282.71999999999997
  20
-1.4899999999999984
  10
282.74
  20
-1.4899999999999984
  10
282.75
  20
-1.4699999999999989
  10
282.77
  20
-1.4599999999999973
  10
282.77
  20
-1.4399999999999977
  10
282.78
  20
-1.4199999999999982
  10
282.78
  20
1.5
  10
290.62
  20
1.5
  10
290.62
  20
-1.4199999999999982
  10
290.63
  20
-1.4399999999999977
  10
290.63
  20
-1.4599999999999973
  10
290.65
  20
-1.4699999999999989
  10
290.65999999999997
  20
-1.4899999999999984
  10
290.68
  20
-1.4899999999999984
  10
290.7
  20
-1.5
  10
300.8
  20
-1.5
  10
300.82
  20
-1.4899999999999984
  10
300.84
  20
-1.4899999999999984
  10
300.84999999999997
  20
-1.4699999999999989
  10
300.87
  20
-1.4599999999999973
  10
300.87
  20
-1.4399999999999977
  10
300.88
  20
-1.4199999999999982
  10
300.88
  20
9.09
  10
303.8
  20
9.09
  10
303.82
  20
9.100000000000001
  10
303.84
  20
9.100000000000001
  10
303.84999999999997
  20
9.120000000000001
  10
303.87
  20
9.130000000000003
  10
303.87
  20
9.150000000000002
  10
303.88
  20
9.170000000000002
  10
303.88
  20
17.17
  10
303.87
  20
17.19
  10
303.87
  20
17.21
  10
303.84999999999997
  20
17.22
  10
303.84
  20
17.240000000000002
  10
303.82
  20
17.240000000000002
  10
303.8
  20
17.25
  10
300.88
  20
17.25
  10
300.88
  20
25.090000000000003
  10
303.8
  20
25.090000000000003
  10
303.82
  20
25.1
  10
303.84
  20
25.1
  10
303.84999999999997
  20
25.12
  10
303.87
  20
25.130000000000003
  10
303.87
  20
25.150000000000002
  10
303.88
  20
25.17
  10
303.88
  20
33.17
  10
303.87
  20
33.190000000000005
  10
303.87
  20
33.21
  10
303.84999999999997
  20
33.22
  10
303.84
  20
33.24
  10
303.82
  20
33.24
  10
303.8
  20
33.25
  10
300.88
  20
33.25
  10
300.88
  20
41.09
  10
303.8
  20
41.09
  10
303.82
  20
41.1
  10
303.84
  20
41.1
  10
303.84999999999997
  20
41.120000000000005
  10
303.87
  20
41.13
  10
303.87
  20
41.150000000000006
  10
303.88
  20
41.17
  10
303.88
  20
49.17
  10
303.87
  20
49.19
  10
303.87
  20
49.21
  10
303.84999999999997
  20
49.22
  10
303.84
  20
49.24
  10
303.82
  20
49.24
  10
303.8
  20
49.25
  10
300.88
  20
49.25
  10
300.88
  20
56.760000000000005
  10
300.87
  20
56.78
  10
300.87
  20
56.8
  10
300.84999999999997
  20
56.81
  10
300.84
  20
56.83
  10
300.82
  20
56.83
  10
300.8
  20
56.84
  10
224.6
  20
56.84
  10
224.57999999999998
  20
56.83
  10
224.56
  20
56.83
  10
224.54999999999998
  20
56.81
  10
224.52999999999997
  20
56.8
  10
224.52999999999997
  20
56.78
  10
224.51999999999998
  20
56.760000000000005
  10
224.51999999999998
  20
35.25
  10
221.6
  20
35.25
  10
221.57999999999998
  20
35.24
  10
221.56
  20
35.24
  10
221.54999999999998
  20
35.22
  10
221.52999999999997
  20
35.21
  10
221.52999999999997
  20
35.190000000000005
  10
221.51999999999998
  20
35.17
  10
221.51999999999998
  20
27.17
  10
221.52999999999997
  20
27.150000000000002
  10
221.52999999999997
  20
27.130000000000003
  10
221.54999999999998
  20
27.12
  10
221.56
  20
27.1
  10
221.57999999999998
  20
27.1
  10
221.6
  20
27.090000000000003
  10
224.51999999999998
  20
27.090000000000003
  10
224.51999999999998
  20
19.25
  10
221.6
  20
19.25
  10
221.57999999999998
  20
19.240000000000002
  10
221.56
  20
19.240000000000002
  10
221.54999999999998
  20
19.22
  10
221.52999999999997
  20
19.21
  10
221.52999999999997
  20
19.19
  10
221.51999999999998
  20
19.17
  10
221.51999999999998
  20
11.170000000000002
  10
221.52999999999997
  20
11.150000000000002
  10
221.52999999999997
  20
11.130000000000003
  10
221.54999999999998
  20
11.120000000000001
  10
221.56
  20
11.100000000000001
  10
221.57999999999998
  20
11.100000000000001
  10
221.6
  20
11.09
  10
224.51999999999998
  20
11.09
  10
224.51999999999998
  20
-1.4199999999999982
  10
224.52999999999997
  20
-1.4399999999999977
  10
224.52999999999997
  20
-1.4599999999999973
  10
224.54999999999998
  20
-1.4699999999999989
  10
224.56
  20
-1.4899999999999984
  10
224.57999999999998
  20
-1.4899999999999984
  10
224.6
  20
-1.5
  10
234.7
  20
-1.5
  10
234.72
  20
-1.4899999999999984
  0
LWPOLYLINE
  5
CAD00008
  100
AcDbEntity
  3
CAD00008
  8
0
  67
0
  62
250
  100
AcDbPolyline
  90
5
  70
1
  10
280.78
  20
50.84
  10
280.78
  20
53.68000000000001
  10
292.62
  20
53.68000000000001
  10
292.62
  20
50.84
  10
280.78
  20
50.84
  0
LWPOLYLINE
  5
CAD00009
  100
AcDbEntity
  3
CAD00009
  8
0
  67
0
  62
250
  100
AcDbPolyline
  90
5
  70
1
  10
256.78
  20
50.84
  10
256.78
  20
53.68000000000001
  10
268.62
  20
53.68000000000001
  10
268.62
  20
50.84
  10
256.78
  20
50.84
  0
LWPOLYLINE
  5
CAD0000A
  100
AcDbEntity
  3
CAD0000A
  8
0
  67
0
  62
250
  100
AcDbPolyline
  90
5
  70
1
  10
232.77999999999997
  20
50.84
  10
232.77999999999997
  20
53.68000000000001
  10
244.61999999999998
  20
53.68000000000001
  10
244.61999999999998
  20
50.84
  10
232.77999999999997
  20
50.84
  0
LWPOLYLINE
  5
CAD0000B
  100
AcDbEntity
  3
CAD0000B
  8
0
  67
0
  62
250
  100
AcDbPolyline
  90
5
  70
1
  10
280.78
  20
44.84
  10
280.78
  20
47.68000000000001
  10
292.62
  20
47.68000000000001
  10
292.62
  20
44.84
  10
280.78
  20
44.84
  0
LWPOLYLINE
  5
CAD0000C
  100
AcDbEntity
  3
CAD0000C
  8
0
  67
0
  62
250
  100
AcDbPolyline
  90
5
  70
1
  10
256.78
  20
44.84
  10
256.78
  20
47.68000000000001
  10
268.62
  20
47.68000000000001
  10
268.62
  20
44.84
  10
256.78
  20
44.84
  0
LWPOLYLINE
  5
CAD0000D
  100
AcDbEntity
  3
CAD0000D
  8
0
  67
0
  62
250
  100
AcDbPolyline
  90
5
  70
1
  10
232.77999999999997
  20
44.84
  10
232.77999999999997
  20
47.68000000000001
  10
244.61999999999998
  20
47.68000000000001
  10
244.61999999999998
  20
44.84
  10
232.77999999999997
  20
44.84
  0
LWPOLYLINE
  5
CAD0000E
  100
AcDbEntity
  3
CAD0000E
  8
0
  67
0
  62
250
  100
AcDbPolyline
  90
173
  70
1
  10
320.08
  20
-1.4899999999999984
  10
320.1
  20
-1.4899999999999984
  10
320.11
  20
-1.4699999999999989
  10
320.13
  20
-1.4599999999999973
  10
320.13
  20
-1.4399999999999977
  10
320.14
  20
-1.4199999999999982
  10
320.14
  20
1.5
  10
327.98
  20
1.5
  10
327.98
  20
-1.4199999999999982
  10
327.99
  20
-1.4399999999999977
  10
327.99
  20
-1.4599999999999973
  10
328.01
  20
-1.4699999999999989
  10
328.02
  20
-1.4899999999999984
  10
328.04
  20
-1.4899999999999984
  10
328.06
  20
-1.5
  10
336.06
  20
-1.5
  10
336.08
  20
-1.4899999999999984
  10
336.1
  20
-1.4899999999999984
  10
336.11
  20
-1.4699999999999989
  10
336.13
  20
-1.4599999999999973
  10
336.13
  20
-1.4399999999999977
  10
336.14
  20
-1.4199999999999982
  10
336.14
  20
1.5
  10
343.98
  20
1.5
  10
343.98
  20
-1.4199999999999982
  10
343.99
  20
-1.4399999999999977
  10
343.99
  20
-1.4599999999999973
  10
344.01
  20
-1.4699999999999989
  10
344.02
  20
-1.4899999999999984
  10
344.04
  20
-1.4899999999999984
  10
344.06
  20
-1.5
  10
352.06
  20
-1.5
  10
352.08
  20
-1.4899999999999984
  10
352.1
  20
-1.4899999999999984
  10
352.11
  20
-1.4699999999999989
  10
352.13
  20
-1.4599999999999973
  10
352.13
  20
-1.4399999999999977
  10
352.14
  20
-1.4199999999999982
  10
352.14
  20
1.5
  10
359.98
  20
1.5
  10
359.98
  20
-1.4199999999999982
  10
359.99
  20
-1.4399999999999977
  10
359.99
  20
-1.4599999999999973
  10
360.01
  20
-1.4699999999999989
  10
360.02
  20
-1.4899999999999984
  10
360.04
  20
-1.4899999999999984
  10
360.06
  20
-1.5
  10
368.06
  20
-1.5
  10
368.08
  20
-1.4899999999999984
  10
368.1
  20
-1.4899999999999984
  10
368.11
  20
-1.4699999999999989
  10
368.13
  20
-1.4599999999999973
  10
368.13
  20
-1.4399999999999977
  10
368.14
  20
-1.4199999999999982
  10
368.14
  20
1.5
  10
375.98
  20
1.5
  10
375.98
  20
-1.4199999999999982
  10
375.99
  20
-1.4399999999999977
  10
375.99
  20
-1.4599999999999973
  10
376.01
  20
-1.4699999999999989
  10
376.02
  20
-1.4899999999999984
  10
376.04
  20
-1.4899999999999984
  10
376.06
  20
-1.5
  10
386.16
  20
-1.5
  10
386.18
  20
-1.4899999999999984
  10
386.2
  20
-1.4899999999999984
  10
386.21
  20
-1.4699999999999989
  10
386.23
  20
-1.4599999999999973
  10
386.23
  20
-1.4399999999999977
  10
386.24
  20
-1.4199999999999982
  10
386.24
  20
9.09
  10
389.16
  20
9.09
  10
389.18
  20
9.100000000000001
  10
389.2
  20
9.100000000000001
  10
389.21
  20
9.120000000000001
  10
389.23
  20
9.130000000000003
  10
389.23
  20
9.150000000000002
  10
389.24
  20
9.170000000000002
  10
389.24
  20
17.17
  10
389.23
  20
17.19
  10
389.23
  20
17.21
  10
389.21
  20
17.22
  10
389.2
  20
17.240000000000002
  10
389.18
  20
17.240000000000002
  10
389.16
  20
17.25
  10
386.24
  20
17.25
  10
386.24
  20
25.090000000000003
  10
389.16
  20
25.090000000000003
  10
389.18
  20
25.1
  10
389.2
  20
25.1
  10
389.21
  20
25.12
  10
389.23
  20
25.130000000000003
  10
389.23
  20
25.150000000000002
  10
389.24
  20
25.17
  10
389.24
  20
33.17
  10
389.23
  20
33.190000000000005
  10
389.23
  20
33.21
  10
389.21
  20
33.22
  10
389.2
  20
33.24
  10
389.18
  20
33.24
  10
389.16
  20
33.25
  10
386.24
  20
33.25
  10
386.24
  20
41.09
  10
389.16
  20
41.09
  10
389.18
  20
41.1
  10
389.2
  20
41.1
  10
389.21
  20
41.120000000000005
  10
389.23
  20
41.13
  10
389.23
  20
41.150000000000006
  10
389.24
  20
41.17
  10
389.24
  20
49.17
  10
389.23
  20
49.19
  10
389.23
  20
49.21
  10
389.21
  20
49.22
  10
389.2
  20
49.24
  10
389.18
  20
49.24
  10
389.16
  20
49.25
  10
386.24
  20
49.25
  10
386.24
  20
56.760000000000005
  10
386.23
  20
56.78
  10
386.23
  20
56.8
  10
386.21
  20
56.81
  10
386.2
  20
56.83
  10
386.18
  20
56.83
  10
386.16
  20
56.84
  10
309.96
  20
56.84
  10
309.94
  20
56.83
  10
309.92
  20
56.83
  10
309.91
  20
56.81
  10
309.89
  20
56.8
  10
309.89
  20
56.78
  10
309.88
  20
56.760000000000005
  10
309.88
  20
35.25
  10
306.96
  20
35.25
  10
306.94
  20
35.24
  10
306.92
  20
35.24
  10
306.91
  20
35.22
  10
306.89
  20
35.21
  10
306.89
  20
35.190000000000005
  10
306.88
  20
35.17
  10
306.88
  20
27.17
  10
306.89
  20
27.150000000000002
  10
306.89
  20
27.130000000000003
  10
306.91
  20
27.12
  10
306.92
  20
27.1
  10
306.94
  20
27.1
  10
306.96
  20
27.090000000000003
  10
309.88
  20
27.090000000000003
  10
309.88
  20
19.25
  10
306.96
  20
19.25
  10
306.94
  20
19.240000000000002
  10
306.92
  20
19.240000000000002
  10
306.91
  20
19.22
  10
306.89
  20
19.21
  10
306.89
  20
19.19
  10
306.88
  20
19.17
  10
306.88
  20
11.170000000000002
  10
306.89
  20
11.150000000000002
  10
306.89
  20
11.130000000000003
  10
306.91
  20
11.120000000000001
  10
306.92
  20
11.100000000000001
  10
306.94
  20
11.100000000000001
  10
306.96
  20
11.09
  10
309.88
  20
11.09
  10
309.88
  20
-1.4199999999999982
  10
309.89
  20
-1.4399999999999977
  10
309.89
  20
-1.4599999999999973
  10
309.91
  20
-1.4699999999999989
  10
309.92
  20
-1.4899999999999984
  10
309.94
  20
-1.4899999999999984
  10
309.96
  20
-1.5
  10
320.06
  20
-1.5
  10
320.08
  20
-1.4899999999999984
  0
LWPOLYLINE
  5
CAD0000F
  100
AcDbEntity
  3
CAD0000F
  8
0
  67
0
  62
250
  100
AcDbPolyline
  90
5
  70
1
  10
366.14
  20
50.84
  10
366.14
  20
53.68000000000001
  10
377.98
  20
53.68000000000001
  10
377.98
  20
50.84
  10
366.14
  20
50.84
  0
LWPOLYLINE
  5
CAD00010
  100
AcDbEntity
  3
CAD00010
  8
0
  67
0
  62
250
  100
AcDbPolyline
  90
5
  70
1
  10
342.14
  20
50.84
  10
342.14
  20
53.68000000000001
  10
353.98
  20
53.68000000000001
  10
353.98
  20
50.84
  10
342.14
  20
50.84
  0
LWPOLYLINE
  5
CAD00011
  100
AcDbEntity
  3
CAD00011
  8
0
  67
0
  62
250
  100
AcDbPolyline
  90
5
  70
1
  10
318.14
  20
50.84
  10
318.14
  20
53.68000000000001
  10
329.98
  20
53.68000000000001
  10
329.98
  20
50.84
  10
318.14
  20
50.84
  0
LWPOLYLINE
  5
CAD00012
  100
AcDbEntity
  3
CAD00012
  8
0
  67
0
  62
250
  100
AcDbPolyline
  90
5
  70
1
  10
366.14
  20
44.84
  10
366.14
  20
47.68000000000001
  10
377.98
  20
47.68000000000001
  10
377.98
  20
44.84
  10
366.14
  20
44.84
  0
LWPOLYLINE
  5
CAD00013
  100
AcDbEntity
  3
CAD00013
  8
0
  67
0
  62
250
  100
AcDbPolyline
  90
5
  70
1
  10
342.14
  20
44.84
  10
342.14
  20
47.68000000000001
  10
353.98
  20
47.68000000000001
  10
353.98
  20
44.84
  10
342.14
  20
44.84
  0
LWPOLYLINE
  5
CAD00014
  100
AcDbEntity
  3
CAD00014
  8
0
  67
0
  62
250
  100
AcDbPolyline
  90
5
  70
1
  10
318.14
  20
44.84
  10
318.14
  20
47.68000000000001
  10
329.98
  20
47.68000000000001
  10
329.98
  20
44.84
  10
318.14
  20
44.84
  0
LWPOLYLINE
  5
CAD00015
  100
AcDbEntity
  3
CAD00015
  8
0
  67
0
  62
250
  100
AcDbPolyline
  90
349
  70
1
  10
410.14
  20
0.00999999999999801
  10
410.16
  20
0.00999999999999801
  10
410.17
  20
0.030000000000001137
  10
410.19
  20
0.03999999999999915
  10
410.19
  20
0.060000000000002274
  10
410.2
  20
0.0799999999999983
  10
410.2
  20
3
  10
418.04
  20
3
  10
418.04
  20
0.0799999999999983
  10
418.05
  20
0.060000000000002274
  10
418.05
  20
0.03999999999999915
  10
418.07
  20
0.030000000000001137
  10
418.08
  20
0.00999999999999801
  10
418.1
  20
0.00999999999999801
  10
418.12
  20
0
  10
426.12
  20
0
  10
426.14
  20
0.00999999999999801
  10
426.16
  20
0.00999999999999801
  10
426.17
  20
0.030000000000001137
  10
426.19
  20
0.03999999999999915
  10
426.19
  20
0.060000000000002274
  10
426.2
  20
0.0799999999999983
  10
426.2
  20
3
  10
434.04
  20
3
  10
434.04
  20
0.0799999999999983
  10
434.05
  20
0.060000000000002274
  10
434.05
  20
0.03999999999999915
  10
434.07
  20
0.030000000000001137
  10
434.08
  20
0.00999999999999801
  10
434.1
  20
0.00999999999999801
  10
434.12
  20
0
  10
442.12
  20
0
  10
442.14
  20
0.00999999999999801
  10
442.16
  20
0.00999999999999801
  10
442.17
  20
0.030000000000001137
  10
442.19
  20
0.03999999999999915
  10
442.19
  20
0.060000000000002274
  10
442.2
  20
0.0799999999999983
  10
442.2
  20
3
  10
450.04
  20
3
  10
450.04
  20
0.0799999999999983
  10
450.05
  20
0.060000000000002274
  10
450.05
  20
0.03999999999999915
  10
450.07
  20
0.030000000000001137
  10
450.08
  20
0.00999999999999801
  10
450.1
  20
0.00999999999999801
  10
450.12
  20
0
  10
458.12
  20
0
  10
458.14
  20
0.00999999999999801
  10
458.16
  20
0.00999999999999801
  10
458.17
  20
0.030000000000001137
  10
458.19
  20
0.03999999999999915
  10
458.19
  20
0.060000000000002274
  10
458.2
  20
0.0799999999999983
  10
458.2
  20
3
  10
466.04
  20
3
  10
466.04
  20
0.0799999999999983
  10
466.05
  20
0.060000000000002274
  10
466.05
  20
0.03999999999999915
  10
466.07
  20
0.030000000000001137
  10
466.08
  20
0.00999999999999801
  10
466.1
  20
0.00999999999999801
  10
466.12
  20
0
  10
474.12
  20
0
  10
474.14
  20
0.00999999999999801
  10
474.16
  20
0.00999999999999801
  10
474.17
  20
0.030000000000001137
  10
474.19
  20
0.03999999999999915
  10
474.19
  20
0.060000000000002274
  10
474.2
  20
0.0799999999999983
  10
474.2
  20
3
  10
482.04
  20
3
  10
482.04
  20
0.0799999999999983
  10
482.05
  20
0.060000000000002274
  10
482.05
  20
0.03999999999999915
  10
482.07
  20
0.030000000000001137
  10
482.08
  20
0.00999999999999801
  10
482.1
  20
0.00999999999999801
  10
482.12
  20
0
  10
490.12
  20
0
  10
490.14
  20
0.00999999999999801
  10
490.16
  20
0.00999999999999801
  10
490.17
  20
0.030000000000001137
  10
490.19
  20
0.03999999999999915
  10
490.19
  20
0.060000000000002274
  10
490.2
  20
0.0799999999999983
  10
490.2
  20
3
  10
496.92
  20
3
  10
496.94
  20
3.009999999999998
  10
496.96000000000004
  20
3.009999999999998
  10
496.97
  20
3.030000000000001
  10
496.99
  20
3.039999999999999
  10
496.99
  20
3.0600000000000023
  10
497
  20
3.0799999999999983
  10
497
  20
13.099999999999998
  10
499.92
  20
13.099999999999998
  10
499.94
  20
13.11
  10
499.96000000000004
  20
13.11
  10
499.97
  20
13.129999999999999
  10
499.99
  20
13.14
  10
499.99
  20
13.16
  10
500
  20
13.18
  10
500
  20
21.18
  10
499.99
  20
21.2
  10
499.99
  20
21.22
  10
499.97
  20
21.23
  10
499.96000000000004
  20
21.25
  10
499.94
  20
21.25
  10
499.92
  20
21.259999999999998
  10
497
  20
21.259999999999998
  10
497
  20
29.1
  10
499.92
  20
29.1
  10
499.94
  20
29.11
  10
499.96000000000004
  20
29.11
  10
499.97
  20
29.13
  10
499.99
  20
29.14
  10
499.99
  20
29.16
  10
500
  20
29.18
  10
500
  20
37.18
  10
499.99
  20
37.2
  10
499.99
  20
37.22
  10
499.97
  20
37.23
  10
499.96000000000004
  20
37.25
  10
499.94
  20
37.25
  10
499.92
  20
37.26
  10
497
  20
37.26
  10
497
  20
45.1
  10
499.92
  20
45.1
  10
499.94
  20
45.11
  10
499.96000000000004
  20
45.11
  10
499.97
  20
45.13
  10
499.99
  20
45.14
  10
499.99
  20
45.16
  10
500
  20
45.18
  10
500
  20
53.18
  10
499.99
  20
53.2
  10
499.99
  20
53.22
  10
499.97
  20
53.230000000000004
  10
499.96000000000004
  20
53.25
  10
499.94
  20
53.25
  10
499.92
  20
53.26
  10
497
  20
53.26
  10
497
  20
61.1
  10
499.92
  20
61.1
  10
499.94
  20
61.11
  10
499.96000000000004
  20
61.11
  10
499.97
  20
61.129999999999995
  10
499.99
  20
61.14
  10
499.99
  20
61.16
  10
500
  20
61.18
  10
500
  20
69.18
  10
499.99
  20
69.2
  10
499.99
  20
69.22
  10
499.97
  20
69.23
  10
499.96000000000004
  20
69.25
  10
499.94
  20
69.25
  10
499.92
  20
69.26
  10
497
  20
69.26
  10
497
  20
79.28
  10
496.99
  20
79.3
  10
496.99
  20
79.32
  10
496.97
  20
79.33
  10
496.96000000000004
  20
79.35
  10
496.94
  20
79.35
  10
496.92
  20
79.36
  10
490.2
  20
79.36
  10
490.2
  20
82.28
  10
490.19
  20
82.3
  10
490.19
  20
82.32
  10
490.17
  20
82.33
  10
490.16
  20
82.35
  10
490.14
  20
82.35
  10
490.12
  20
82.36
  10
482.12
  20
82.36
  10
482.1
  20
82.35
  10
482.08
  20
82.35
  10
482.07
  20
82.33
  10
482.05
  20
82.32
  10
482.05
  20
82.3
  10
482.04
  20
82.28
  10
482.04
  20
79.36
  10
474.2
  20
79.36
  10
474.2
  20
82.28
  10
474.19
  20
82.3
  10
474.19
  20
82.32
  10
474.17
  20
82.33
  10
474.16
  20
82.35
  10
474.14
  20
82.35
  10
474.12
  20
82.36
  10
466.12
  20
82.36
  10
466.1
  20
82.35
  10
466.08
  20
82.35
  10
466.07
  20
82.33
  10
466.05
  20
82.32
  10
466.05
  20
82.3
  10
466.04
  20
82.28
  10
466.04
  20
79.36
  10
458.2
  20
79.36
  10
458.2
  20
82.28
  10
458.19
  20
82.3
  10
458.19
  20
82.32
  10
458.17
  20
82.33
  10
458.16
  20
82.35
  10
458.14
  20
82.35
  10
458.12
  20
82.36
  10
450.12
  20
82.36
  10
450.1
  20
82.35
  10
450.08
  20
82.35
  10
450.07
  20
82.33
  10
450.05
  20
82.32
  10
450.05
  20
82.3
  10
450.04
  20
82.28
  10
450.04
  20
79.36
  10
442.2
  20
79.36
  10
442.2
  20
82.28
  10
442.19
  20
82.3
  10
442.19
  20
82.32
  10
442.17
  20
82.33
  10
442.16
  20
82.35
  10
442.14
  20
82.35
  10
442.12
  20
82.36
  10
434.12
  20
82.36
  10
434.1
  20
82.35
  10
434.08
  20
82.35
  10
434.07
  20
82.33
  10
434.05
  20
82.32
  10
434.05
  20
82.3
  10
434.04
  20
82.28
  10
434.04
  20
79.36
  10
426.2
  20
79.36
  10
426.2
  20
82.28
  10
426.19
  20
82.3
  10
426.19
  20
82.32
  10
426.17
  20
82.33
  10
426.16
  20
82.35
  10
426.14
  20
82.35
  10
426.12
  20
82.36
  10
418.12
  20
82.36
  10
418.1
  20
82.35
  10
418.08
  20
82.35
  10
418.07
  20
82.33
  10
418.05
  20
82.32
  10
418.05
  20
82.3
  10
418.04
  20
82.28
  10
418.04
  20
79.36
  10
410.2
  20
79.36
  10
410.2
  20
82.28
  10
410.19
  20
82.3
  10
410.19
  20
82.32
  10
410.17
  20
82.33
  10
410.16
  20
82.35
  10
410.14
  20
82.35
  10
410.12
  20
82.36
  10
402.12
  20
82.36
  10
402.1
  20
82.35
  10
402.08
  20
82.35
  10
402.07
  20
82.33
  10
402.05
  20
82.32
  10
402.05
  20
82.3
  10
402.04
  20
82.28
  10
402.04
  20
79.36
  10
395.32
  20
79.36
  10
395.3
  20
79.35
  10
395.28
  20
79.35
  10
395.27
  20
79.33
  10
395.25
  20
79.32
  10
395.25
  20
79.3
  10
395.24
  20
79.28
  10
395.24
  20
69.26
  10
392.32
  20
69.26
  10
392.3
  20
69.25
  10
392.28
  20
69.25
  10
392.27
  20
69.23
  10
392.25
  20
69.22
  10
392.25
  20
69.2
  10
392.24
  20
69.18
  10
392.24
  20
61.18
  10
392.25
  20
61.16
  10
392.25
  20
61.14
  10
392.27
  20
61.129999999999995
  10
392.28
  20
61.11
  10
392.3
  20
61.11
  10
392.32
  20
61.1
  10
395.24
  20
61.1
  10
395.24
  20
53.26
  10
392.32
  20
53.26
  10
392.3
  20
53.25
  10
392.28
  20
53.25
  10
392.27
  20
53.230000000000004
  10
392.25
  20
53.22
  10
392.25
  20
53.2
  10
392.24
  20
53.18
  10
392.24
  20
45.18
  10
392.25
  20
45.16
  10
392.25
  20
45.14
  10
392.27
  20
45.13
  10
392.28
  20
45.11
  10
392.3
  20
45.11
  10
392.32
  20
45.1
  10
395.24
  20
45.1
  10
395.24
  20
37.26
  10
392.32
  20
37.26
  10
392.3
  20
37.25
  10
392.28
  20
37.25
  10
392.27
  20
37.23
  10
392.25
  20
37.22
  10
392.25
  20
37.2
  10
392.24
  20
37.18
  10
392.24
  20
29.18
  10
392.25
  20
29.16
  10
392.25
  20
29.14
  10
392.27
  20
29.13
  10
392.28
  20
29.11
  10
392.3
  20
29.11
  10
392.32
  20
29.1
  10
395.24
  20
29.1
  10
395.24
  20
21.259999999999998
  10
392.32
  20
21.259999999999998
  10
392.3
  20
21.25
  10
392.28
  20
21.25
  10
392.27
  20
21.23
  10
392.25
  20
21.22
  10
392.25
  20
21.2
  10
392.24
  20
21.18
  10
392.24
  20
13.18
  10
392.25
  20
13.16
  10
392.25
  20
13.14
  10
392.27
  20
13.129999999999999
  10
392.28
  20
13.11
  10
392.3
  20
13.11
  10
392.32
  20
13.099999999999998
  10
395.24
  20
13.099999999999998
  10
395.24
  20
3.0799999999999983
  10
395.25
  20
3.0600000000000023
  10
395.25
  20
3.039999999999999
  10
395.27
  20
3.030000000000001
  10
395.28
  20
3.009999999999998
  10
395.3
  20
3.009999999999998
  10
395.32
  20
3
  10
402.04
  20
3
  10
402.04
  20
0.0799999999999983
  10
402.05
  20
0.060000000000002274
  10
402.05
  20
0.03999999999999915
  10
402.07
  20
0.030000000000001137
  10
402.08
  20
0.00999999999999801
  10
402.1
  20
0.00999999999999801
  10
402.12
  20
0
  10
410.12
  20
0
  10
410.14
  20
0.00999999999999801
  0
LWPOLYLINE
  5
CAD00016
  100
AcDbEntity
  3
CAD00016
  8
0
  67
0
  62
250
  100
AcDbPolyline
  90
77
  70
1
  10
20.2
  20
83.87
  10
20.22
  20
83.87
  10
20.23
  20
83.89
  10
20.25
  20
83.89999999999999
  10
20.25
  20
83.92
  10
20.259999999999998
  20
83.94
  10
20.259999999999998
  20
86.86
  10
32.1
  20
86.86
  10
32.1
  20
83.94
  10
32.11
  20
83.92
  10
32.11
  20
83.89999999999999
  10
32.13
  20
83.89
  10
32.14
  20
83.87
  10
32.16
  20
83.87
  10
32.18
  20
83.86
  10
44.18
  20
83.86
  10
44.2
  20
83.87
  10
44.22
  20
83.87
  10
44.23
  20
83.89
  10
44.25
  20
83.89999999999999
  10
44.25
  20
83.92
  10
44.26
  20
83.94
  10
44.26
  20
86.86
  10
56.1
  20
86.86
  10
56.1
  20
83.94
  10
56.11
  20
83.92
  10
56.11
  20
83.89999999999999
  10
56.129999999999995
  20
83.89
  10
56.14
  20
83.87
  10
56.16
  20
83.87
  10
56.18
  20
83.86
  10
68.18
  20
83.86
  10
68.2
  20
83.87
  10
68.22
  20
83.87
  10
68.23
  20
83.89
  10
68.25
  20
83.89999999999999
  10
68.25
  20
83.92
  10
68.26
  20
83.94
  10
68.26
  20
86.86
  10
76.28
  20
86.86
  10
76.3
  20
86.87
  10
76.32
  20
86.87
  10
76.33
  20
86.89
  10
76.35
  20
86.89999999999999
  10
76.35
  20
86.92
  10
76.36
  20
86.94
  10
76.35
  20
86.96
  10
76.35
  20
86.98
  10
76.33
  20
86.99
  10
70.33
  20
92.99
  10
70.32
  20
93.00999999999999
  10
70.3
  20
93.00999999999999
  10
70.28
  20
93.02
  10
6.079999999999998
  20
93.02
  10
6.060000000000002
  20
93.00999999999999
  10
6.039999999999999
  20
93.00999999999999
  10
6.030000000000001
  20
92.99
  10
0.030000000000001137
  20
86.99
  10
0.00999999999999801
  20
86.98
  10
0.00999999999999801
  20
86.96
  10
0
  20
86.94
  10
0.00999999999999801
  20
86.92
  10
0.00999999999999801
  20
86.89999999999999
  10
0.030000000000001137
  20
86.89
  10
0.03999999999999915
  20
86.87
  10
0.060000000000002274
  20
86.87
  10
0.0799999999999983
  20
86.86
  10
8.099999999999998
  20
86.86
  10
8.099999999999998
  20
83.94
  10
8.11
  20
83.92
  10
8.11
  20
83.89999999999999
  10
8.129999999999999
  20
83.89
  10
8.14
  20
83.87
  10
8.16
  20
83.87
  10
8.18
  20
83.86
  10
20.18
  20
83.86
  10
20.2
  20
83.87
  0
LWPOLYLINE
  5
CAD00017
  100
AcDbEntity
  3
CAD00017
  8
0
  67
0
  62
250
  100
AcDbPolyline
  90
77
  70
1
  10
99.55999999999999
  20
83.87
  10
99.57999999999998
  20
83.87
  10
99.58999999999999
  20
83.89
  10
99.60999999999999
  20
83.89999999999999
  10
99.60999999999999
  20
83.92
  10
99.61999999999999
  20
83.94
  10
99.61999999999999
  20
86.86
  10
111.46
  20
86.86
  10
111.46
  20
83.94
  10
111.47
  20
83.92
  10
111.47
  20
83.89999999999999
  10
111.49
  20
83.89
  10
111.49999999999999
  20
83.87
  10
111.52
  20
83.87
  10
111.53999999999999
  20
83.86
  10
123.53999999999999
  20
83.86
  10
123.55999999999999
  20
83.87
  10
123.58
  20
83.87
  10
123.58999999999999
  20
83.89
  10
123.60999999999999
  20
83.89999999999999
  10
123.60999999999999
  20
83.92
  10
123.61999999999999
  20
83.94
  10
123.61999999999999
  20
86.86
  10
135.45999999999998
  20
86.86
  10
135.45999999999998
  20
83.94
  10
135.47
  20
83.92
  10
135.47
  20
83.89999999999999
  10
135.48999999999998
  20
83.89
  10
135.5
  20
83.87
  10
135.51999999999998
  20
83.87
  10
135.54
  20
83.86
  10
147.54
  20
83.86
  10
147.56
  20
83.87
  10
147.57999999999998
  20
83.87
  10
147.59
  20
83.89
  10
147.60999999999999
  20
83.89999999999999
  10
147.60999999999999
  20
83.92
  10
147.62
  20
83.94
  10
147.62
  20
86.86
  10
155.64
  20
86.86
  10
155.66
  20
86.87
  10
155.68
  20
86.87
  10
155.69
  20
86.89
  10
155.70999999999998
  20
86.89999999999999
  10
155.70999999999998
  20
86.92
  10
155.72
  20
86.94
  10
155.70999999999998
  20
86.96
  10
155.70999999999998
  20
86.98
  10
155.69
  20
86.99
  10
149.69
  20
92.99
  10
149.68
  20
93.00999999999999
  10
149.66
  20
93.00999999999999
  10
149.64
  20
93.02
  10
85.44
  20
93.02
  10
85.41999999999999
  20
93.00999999999999
  10
85.39999999999999
  20
93.00999999999999
  10
85.38999999999999
  20
92.99
  10
79.38999999999999
  20
86.99
  10
79.36999999999999
  20
86.98
  10
79.36999999999999
  20
86.96
  10
79.35999999999999
  20
86.94
  10
79.36999999999999
  20
86.92
  10
79.36999999999999
  20
86.89999999999999
  10
79.38999999999999
  20
86.89
  10
79.39999999999999
  20
86.87
  10
79.41999999999999
  20
86.87
  10
79.44
  20
86.86
  10
87.46
  20
86.86
  10
87.46
  20
83.94
  10
87.47
  20
83.92
  10
87.47
  20
83.89999999999999
  10
87.49
  20
83.89
  10
87.5
  20
83.87
  10
87.52
  20
83.87
  10
87.53999999999999
  20
83.86
  10
99.53999999999999
  20
83.86
  10
99.55999999999999
  20
83.87
  0
LWPOLYLINE
  5
CAD00018
  100
AcDbEntity
  3
CAD00018
  8
0
  67
0
  62
250
  100
AcDbPolyline
  90
77
  70
1
  10
178.92000000000002
  20
83.87
  10
178.94
  20
83.87
  10
178.95000000000002
  20
83.89
  10
178.97
  20
83.89999999999999
  10
178.97
  20
83.92
  10
178.98000000000002
  20
83.94
  10
178.98000000000002
  20
86.86
  10
190.82
  20
86.86
  10
190.82
  20
83.94
  10
190.83
  20
83.92
  10
190.83
  20
83.89999999999999
  10
190.85
  20
83.89
  10
190.86
  20
83.87
  10
190.88
  20
83.87
  10
190.9
  20
83.86
  10
202.9
  20
83.86
  10
202.92000000000002
  20
83.87
  10
202.94
  20
83.87
  10
202.95000000000002
  20
83.89
  10
202.97
  20
83.89999999999999
  10
202.97
  20
83.92
  10
202.98000000000002
  20
83.94
  10
202.98000000000002
  20
86.86
  10
214.82
  20
86.86
  10
214.82
  20
83.94
  10
214.83
  20
83.92
  10
214.83
  20
83.89999999999999
  10
214.85
  20
83.89
  10
214.86
  20
83.87
  10
214.88
  20
83.87
  10
214.9
  20
83.86
  10
226.9
  20
83.86
  10
226.92000000000002
  20
83.87
  10
226.94
  20
83.87
  10
226.95000000000002
  20
83.89
  10
226.97
  20
83.89999999999999
  10
226.97
  20
83.92
  10
226.98000000000002
  20
83.94
  10
226.98000000000002
  20
86.86
  10
235
  20
86.86
  10
235.02
  20
86.87
  10
235.04000000000002
  20
86.87
  10
235.05
  20
86.89
  10
235.07
  20
86.89999999999999
  10
235.07
  20
86.92
  10
235.08
  20
86.94
  10
235.07
  20
86.96
  10
235.07
  20
86.98
  10
235.05
  20
86.99
  10
229.05
  20
92.99
  10
229.04000000000002
  20
93.00999999999999
  10
229.02
  20
93.00999999999999
  10
229
  20
93.02
  10
164.8
  20
93.02
  10
164.78
  20
93.00999999999999
  10
164.76
  20
93.00999999999999
  10
164.75
  20
92.99
  10
158.75
  20
86.99
  10
158.73000000000002
  20
86.98
  10
158.73000000000002
  20
86.96
  10
158.72
  20
86.94
  10
158.73000000000002
  20
86.92
  10
158.73000000000002
  20
86.89999999999999
  10
158.75
  20
86.89
  10
158.76
  20
86.87
  10
158.78
  20
86.87
  10
158.8
  20
86.86
  10
166.82
  20
86.86
  10
166.82
  20
83.94
  10
166.83
  20
83.92
  10
166.83
  20
83.89999999999999
  10
166.85
  20
83.89
  10
166.86
  20
83.87
  10
166.88
  20
83.87
  10
166.9
  20
83.86
  10
178.9
  20
83.86
  10
178.92000000000002
  20
83.87
  0
LWPOLYLINE
  5
CAD00019
  100
AcDbEntity
  3
CAD00019
  8
0
  67
0
  62
250
  100
AcDbPolyline
  90
77
  70
1
  10
258.28
  20
83.87
  10
258.3
  20
83.87
  10
258.31
  20
83.89
  10
258.33
  20
83.89999999999999
  10
258.33
  20
83.92
  10
258.34
  20
83.94
  10
258.34
  20
86.86
  10
270.18
  20
86.86
  10
270.18
  20
83.94
  10
270.19
  20
83.92
  10
270.19
  20
83.89999999999999
  10
270.21
  20
83.89
  10
270.21999999999997
  20
83.87
  10
270.24
  20
83.87
  10
270.26
  20
83.86
  10
282.26
  20
83.86
  10
282.28
  20
83.87
  10
282.3
  20
83.87
  10
282.31
  20
83.89
  10
282.33
  20
83.89999999999999
  10
282.33
  20
83.92
  10
282.34
  20
83.94
  10
282.34
  20
86.86
  10
294.18
  20
86.86
  10
294.18
  20
83.94
  10
294.19
  20
83.92
  10
294.19
  20
83.89999999999999
  10
294.21
  20
83.89
  10
294.21999999999997
  20
83.87
  10
294.24
  20
83.87
  10
294.26
  20
83.86
  10
306.26
  20
83.86
  10
306.28
  20
83.87
  10
306.3
  20
83.87
  10
306.31
  20
83.89
  10
306.33
  20
83.89999999999999
  10
306.33
  20
83.92
  10
306.34
  20
83.94
  10
306.34
  20
86.86
  10
314.36
  20
86.86
  10
314.38
  20
86.87
  10
314.4
  20
86.87
  10
314.40999999999997
  20
86.89
  10
314.43
  20
86.89999999999999
  10
314.43
  20
86.92
  10
314.44
  20
86.94
  10
314.43
  20
86.96
  10
314.43
  20
86.98
  10
314.40999999999997
  20
86.99
  10
308.40999999999997
  20
92.99
  10
308.4
  20
93.00999999999999
  10
308.38
  20
93.00999999999999
  10
308.36
  20
93.02
  10
244.16
  20
93.02
  10
244.14
  20
93.00999999999999
  10
244.12
  20
93.00999999999999
  10
244.10999999999999
  20
92.99
  10
238.10999999999999
  20
86.99
  10
238.08999999999997
  20
86.98
  10
238.08999999999997
  20
86.96
  10
238.07999999999998
  20
86.94
  10
238.08999999999997
  20
86.92
  10
238.08999999999997
  20
86.89999999999999
  10
238.10999999999999
  20
86.89
  10
238.12
  20
86.87
  10
238.14
  20
86.87
  10
238.16
  20
86.86
  10
246.17999999999998
  20
86.86
  10
246.17999999999998
  20
83.94
  10
246.19
  20
83.92
  10
246.19
  20
83.89999999999999
  10
246.20999999999998
  20
83.89
  10
246.22
  20
83.87
  10
246.23999999999998
  20
83.87
  10
246.26
  20
83.86
  10
258.26
  20
83.86
  10
258.28
  20
83.87
  0
LWPOLYLINE
  5
CAD0001A
  100
AcDbEntity
  3
CAD0001A
  8
0
  67
0
  62
250
  100
AcDbPolyline
  90
93
  70
1
  10
338.34
  20
83.87
  10
338.36
  20
83.87
  10
338.37
  20
83.89
  10
338.39
  20
83.89999999999999
  10
338.39
  20
83.92
  10
338.4
  20
83.94
  10
338.4
  20
86.86
  10
350.24
  20
86.86
  10
350.24
  20
83.94
  10
350.25
  20
83.92
  10
350.25
  20
83.89999999999999
  10
350.27
  20
83.89
  10
350.28
  20
83.87
  10
350.3
  20
83.87
  10
350.32
  20
83.86
  10
362.32
  20
83.86
  10
362.34
  20
83.87
  10
362.36
  20
83.87
  10
362.37
  20
83.89
  10
362.39
  20
83.89999999999999
  10
362.39
  20
83.92
  10
362.4
  20
83.94
  10
362.4
  20
86.86
  10
374.24
  20
86.86
  10
374.24
  20
83.94
  10
374.25
  20
83.92
  10
374.25
  20
83.89999999999999
  10
374.27
  20
83.89
  10
374.28
  20
83.87
  10
374.3
  20
83.87
  10
374.32
  20
83.86
  10
386.32
  20
83.86
  10
386.34
  20
83.87
  10
386.36
  20
83.87
  10
386.37
  20
83.89
  10
386.39
  20
83.89999999999999
  10
386.39
  20
83.92
  10
386.4
  20
83.94
  10
386.4
  20
86.86
  10
398.24
  20
86.86
  10
398.24
  20
83.94
  10
398.25
  20
83.92
  10
398.25
  20
83.89999999999999
  10
398.27
  20
83.89
  10
398.28
  20
83.87
  10
398.3
  20
83.87
  10
398.32
  20
83.86
  10
410.32
  20
83.86
  10
410.34
  20
83.87
  10
410.36
  20
83.87
  10
410.37
  20
83.89
  10
410.39
  20
83.89999999999999
  10
410.39
  20
83.92
  10
410.4
  20
83.94
  10
410.4
  20
86.86
  10
419.12
  20
86.86
  10
419.14
  20
86.87
  10
419.15999999999997
  20
86.87
  10
419.17
  20
86.89
  10
419.19
  20
86.89999999999999
  10
419.19
  20
86.92
  10
419.2
  20
86.94
  10
419.19
  20
86.96
  10
419.19
  20
86.98
  10
419.17
  20
86.99
  10
413.17
  20
92.99
  10
413.15999999999997
  20
93.00999999999999
  10
413.14
  20
93.00999999999999
  10
413.12
  20
93.02
  10
323.52
  20
93.02
  10
323.5
  20
93.00999999999999
  10
323.48
  20
93.00999999999999
  10
323.46999999999997
  20
92.99
  10
317.46999999999997
  20
86.99
  10
317.45
  20
86.98
  10
317.45
  20
86.96
  10
317.44
  20
86.94
  10
317.45
  20
86.92
  10
317.45
  20
86.89999999999999
  10
317.46999999999997
  20
86.89
  10
317.48
  20
86.87
  10
317.5
  20
86.87
  10
317.52
  20
86.86
  10
326.24
  20
86.86
  10
326.24
  20
83.94
  10
326.25
  20
83.92
  10
326.25
  20
83.89999999999999
  10
326.27
  20
83.89
  10
326.28
  20
83.87
  10
326.3
  20
83.87
  10
326.32
  20
83.86
  10
338.32
  20
83.86
  10
338.34
  20
83.87
  0
LWPOLYLINE
  5
CAD0001B
  100
AcDbEntity
  3
CAD0001B
  8
0
  67
0
  62
250
  100
AcDbPolyline
  90
93
  70
1
  10
20.900000000000002
  20
96.03
  10
20.92
  20
96.03
  10
20.930000000000003
  20
96.05
  10
20.950000000000003
  20
96.05999999999999
  10
20.950000000000003
  20
96.08
  10
20.96
  20
96.1
  10
20.96
  20
99.02
  10
32.8
  20
99.02
  10
32.8
  20
96.1
  10
32.81
  20
96.08
  10
32.81
  20
96.05999999999999
  10
32.83
  20
96.05
  10
32.84
  20
96.03
  10
32.86
  20
96.03
  10
32.88
  20
96.02
  10
44.88
  20
96.02
  10
44.900000000000006
  20
96.03
  10
44.92
  20
96.03
  10
44.93
  20
96.05
  10
44.95
  20
96.05999999999999
  10
44.95
  20
96.08
  10
44.96
  20
96.1
  10
44.96
  20
99.02
  10
56.800000000000004
  20
99.02
  10
56.800000000000004
  20
96.1
  10
56.81
  20
96.08
  10
56.81
  20
96.05999999999999
  10
56.830000000000005
  20
96.05
  10
56.84
  20
96.03
  10
56.86
  20
96.03
  10
56.88
  20
96.02
  10
68.88
  20
96.02
  10
68.9
  20
96.03
  10
68.92
  20
96.03
  10
68.93
  20
96.05
  10
68.95
  20
96.05999999999999
  10
68.95
  20
96.08
  10
68.96000000000001
  20
96.1
  10
68.96000000000001
  20
99.02
  10
80.80000000000001
  20
99.02
  10
80.80000000000001
  20
96.1
  10
80.81
  20
96.08
  10
80.81
  20
96.05999999999999
  10
80.83
  20
96.05
  10
80.84
  20
96.03
  10
80.86
  20
96.03
  10
80.88
  20
96.02
  10
92.88
  20
96.02
  10
92.9
  20
96.03
  10
92.92
  20
96.03
  10
92.93
  20
96.05
  10
92.95
  20
96.05999999999999
  10
92.95
  20
96.08
  10
92.96000000000001
  20
96.1
  10
92.96000000000001
  20
99.02
  10
101.68
  20
99.02
  10
101.7
  20
99.03
  10
101.72
  20
99.03
  10
101.73
  20
99.05
  10
101.75
  20
99.05999999999999
  10
101.75
  20
99.08
  10
101.76
  20
99.1
  10
101.75
  20
99.11999999999999
  10
101.75
  20
99.14
  10
101.73
  20
99.14999999999999
  10
95.73
  20
105.14999999999999
  10
95.72
  20
105.16999999999999
  10
95.7
  20
105.16999999999999
  10
95.68
  20
105.17999999999999
  10
6.079999999999998
  20
105.17999999999999
  10
6.060000000000002
  20
105.16999999999999
  10
6.039999999999999
  20
105.16999999999999
  10
6.030000000000001
  20
105.14999999999999
  10
0.030000000000001137
  20
99.14999999999999
  10
0.00999999999999801
  20
99.14
  10
0.00999999999999801
  20
99.11999999999999
  10
0
  20
99.1
  10
0.00999999999999801
  20
99.08
  10
0.00999999999999801
  20
99.05999999999999
  10
0.030000000000001137
  20
99.05
  10
0.03999999999999915
  20
99.03
  10
0.060000000000002274
  20
99.03
  10
0.0799999999999983
  20
99.02
  10
8.800000000000004
  20
99.02
  10
8.800000000000004
  20
96.1
  10
8.810000000000002
  20
96.08
  10
8.810000000000002
  20
96.05999999999999
  10
8.829999999999998
  20
96.05
  10
8.840000000000003
  20
96.03
  10
8.86
  20
96.03
  10
8.880000000000003
  20
96.02
  10
20.880000000000003
  20
96.02
  10
20.900000000000002
  20
96.03
  0
LWPOLYLINE
  5
CAD0001C
  100
AcDbEntity
  3
CAD0001C
  8
0
  67
0
  62
250
  100
AcDbPolyline
  90
93
  70
1
  10
206.46
  20
99.02999999999999
  10
206.48000000000002
  20
99.02999999999999
  10
206.49
  20
99.04999999999998
  10
206.51000000000002
  20
99.05999999999999
  10
206.51000000000002
  20
99.07999999999998
  10
206.52
  20
99.1
  10
206.52
  20
175.29999999999998
  10
206.51000000000002
  20
175.32
  10
206.51000000000002
  20
175.33999999999997
  10
206.49
  20
175.35
  10
206.48000000000002
  20
175.37
  10
206.46
  20
175.37
  10
206.44000000000003
  20
175.38
  10
197.72000000000003
  20
175.38
  10
197.72000000000003
  20
178.29999999999998
  10
197.71
  20
178.32
  10
197.71
  20
178.33999999999997
  10
197.69000000000003
  20
178.35
  10
197.68
  20
178.37
  10
197.66000000000003
  20
178.37
  10
197.64000000000001
  20
178.38
  10
185.64000000000001
  20
178.38
  10
185.62
  20
178.37
  10
185.60000000000002
  20
178.37
  10
185.59
  20
178.35
  10
185.57000000000002
  20
178.33999999999997
  10
185.57000000000002
  20
178.32
  10
185.56
  20
178.29999999999998
  10
185.56
  20
175.38
  10
173.72000000000003
  20
175.38
  10
173.72000000000003
  20
178.29999999999998
  10
173.71
  20
178.32
  10
173.71
  20
178.33999999999997
  10
173.69000000000003
  20
178.35
  10
173.68
  20
178.37
  10
173.66000000000003
  20
178.37
  10
173.64000000000001
  20
178.38
  10
161.64000000000001
  20
178.38
  10
161.62
  20
178.37
  10
161.60000000000002
  20
178.37
  10
161.59
  20
178.35
  10
161.57000000000002
  20
178.33999999999997
  10
161.57000000000002
  20
178.32
  10
161.56
  20
178.29999999999998
  10
161.56
  20
175.38
  10
149.72000000000003
  20
175.38
  10
149.72000000000003
  20
178.29999999999998
  10
149.71
  20
178.32
  10
149.71
  20
178.33999999999997
  10
149.69000000000003
  20
178.35
  10
149.68
  20
178.37
  10
149.66000000000003
  20
178.37
  10
149.64000000000001
  20
178.38
  10
137.64000000000001
  20
178.38
  10
137.62
  20
178.37
  10
137.60000000000002
  20
178.37
  10
137.59
  20
178.35
  10
137.57000000000002
  20
178.33999999999997
  10
137.57000000000002
  20
178.32
  10
137.56
  20
178.29999999999998
  10
137.56
  20
175.38
  10
125.72000000000001
  20
175.38
  10
125.72000000000001
  20
178.29999999999998
  10
125.71000000000001
  20
178.32
  10
125.71000000000001
  20
178.33999999999997
  10
125.69000000000001
  20
178.35
  10
125.68
  20
178.37
  10
125.66000000000001
  20
178.37
  10
125.64000000000001
  20
178.38
  10
113.64000000000001
  20
178.38
  10
113.62
  20
178.37
  10
113.60000000000002
  20
178.37
  10
113.59
  20
178.35
  10
113.57000000000002
  20
178.33999999999997
  10
113.57000000000002
  20
178.32
  10
113.56000000000002
  20
178.29999999999998
  10
113.56000000000002
  20
175.38
  10
104.84
  20
175.38
  10
104.82000000000002
  20
175.37
  10
104.80000000000001
  20
175.37
  10
104.79000000000002
  20
175.35
  10
104.77000000000001
  20
175.33999999999997
  10
104.77000000000001
  20
175.32
  10
104.76000000000002
  20
175.29999999999998
  10
104.76000000000002
  20
99.1
  10
104.77000000000001
  20
99.07999999999998
  10
104.77000000000001
  20
99.05999999999999
  10
104.79000000000002
  20
99.04999999999998
  10
104.80000000000001
  20
99.02999999999999
  10
104.82000000000002
  20
99.02999999999999
  10
104.84
  20
99.01999999999998
  10
206.44000000000003
  20
99.01999999999998
  10
206.46
  20
99.02999999999999
  0
LWPOLYLINE
  5
CAD0001D
  100
AcDbEntity
  3
CAD0001D
  8
0
  67
0
  62
250
  100
AcDbPolyline
  90
29
  70
1
  10
317.22
  20
97.53
  10
317.24
  20
97.53
  10
317.25000000000006
  20
97.55
  10
317.27000000000004
  20
97.55999999999999
  10
317.27000000000004
  20
97.58
  10
317.28000000000003
  20
97.6
  10
317.28000000000003
  20
109.6
  10
317.27000000000004
  20
109.61999999999999
  10
317.27000000000004
  20
109.64
  10
317.25000000000006
  20
109.64999999999999
  10
317.24
  20
109.66999999999999
  10
317.22
  20
109.66999999999999
  10
317.20000000000005
  20
109.67999999999999
  10
209.60000000000002
  20
109.67999999999999
  10
209.58000000000004
  20
109.66999999999999
  10
209.56000000000003
  20
109.66999999999999
  10
209.55000000000004
  20
109.64999999999999
  10
209.53000000000003
  20
109.64
  10
209.53000000000003
  20
109.61999999999999
  10
209.52000000000004
  20
109.6
  10
209.52000000000004
  20
97.6
  10
209.53000000000003
  20
97.58
  10
209.53000000000003
  20
97.55999999999999
  10
209.55000000000004
  20
97.55
  10
209.56000000000003
  20
97.53
  10
209.58000000000004
  20
97.53
  10
209.60000000000002
  20
97.52
  10
317.20000000000005
  20
97.52
  10
317.22
  20
97.53
  0
LWPOLYLINE
  5
CAD0001E
  100
AcDbEntity
  3
CAD0001E
  8
0
  67
0
  62
250
  100
AcDbPolyline
  90
5
  70
1
  10
293.48
  20
100.67999999999999
  10
293.48
  20
106.52
  10
305.32000000000005
  20
106.52
  10
305.32000000000005
  20
100.67999999999999
  10
293.48
  20
100.67999999999999
  0
LWPOLYLINE
  5
CAD0001F
  100
AcDbEntity
  3
CAD0001F
  8
0
  67
0
  62
250
  100
AcDbPolyline
  90
5
  70
1
  10
269.48
  20
100.67999999999999
  10
269.48
  20
106.52
  10
281.32000000000005
  20
106.52
  10
281.32000000000005
  20
100.67999999999999
  10
269.48
  20
100.67999999999999
  0
LWPOLYLINE
  5
CAD00020
  100
AcDbEntity
  3
CAD00020
  8
0
  67
0
  62
250
  100
AcDbPolyline
  90
5
  70
1
  10
245.48000000000002
  20
100.67999999999999
  10
245.48000000000002
  20
106.52
  10
257.32000000000005
  20
106.52
  10
257.32000000000005
  20
100.67999999999999
  10
245.48000000000002
  20
100.67999999999999
  0
LWPOLYLINE
  5
CAD00021
  100
AcDbEntity
  3
CAD00021
  8
0
  67
0
  62
250
  100
AcDbPolyline
  90
5
  70
1
  10
221.48000000000002
  20
100.67999999999999
  10
221.48000000000002
  20
106.52
  10
233.32000000000002
  20
106.52
  10
233.32000000000002
  20
100.67999999999999
  10
221.48000000000002
  20
100.67999999999999
  0
ENDSEC
  0
SECTION
  2
OBJECTS
  0
DICTIONARY
  5
C
330
0
100
AcDbDictionary
281
1
  3
ACAD_COLOR
350
524
  3
ACAD_GROUP
350
525
  3
ACAD_LAYOUT
350
526
  3
ACAD_MATERIAL
350
527
  3
ACAD_MLEADERSTYLE
350
528
  3
ACAD_MLINESTYLE
350
529
  3
ACAD_PLOTSETTINGS
350
52A
  3
ACAD_PLOTSTYLENAME
350
52C
  3
ACAD_SCALELIST
350
52D
  3
ACAD_TABLESTYLE
350
52E
  3
ACAD_VISUALSTYLE
350
52F
  0
DICTIONARY
  5
524
330
C
100
AcDbDictionary
281
1
  0
DICTIONARY
  5
525
330
C
100
AcDbDictionary
281
1
  0
DICTIONARY
  5
526
330
C
100
AcDbDictionary
281
1
  3
Model
350
530
  3
Layout1
350
531
  0
DICTIONARY
  5
527
330
C
100
AcDbDictionary
281
1
  0
DICTIONARY
  5
528
330
C
100
AcDbDictionary
281
1
  0
DICTIONARY
  5
529
330
C
100
AcDbDictionary
281
1
  0
DICTIONARY
  5
52A
330
C
100
AcDbDictionary
281
1
  0
ACDBPLACEHOLDER
  5
52B
330
52C
  0
ACDBDICTIONARYWDFLT
  5
52C
330
C
100
AcDbDictionary
281
1
  3
Normal
350
52B
100
AcDbDictionaryWithDefault
340
52B
  0
DICTIONARY
  5
52D
330
C
100
AcDbDictionary
281
1
  0
DICTIONARY
  5
52E
330
C
100
AcDbDictionary
281
1
  0
DICTIONARY
  5
52F
330
C
100
AcDbDictionary
281
1
  0
LAYOUT
  5
530
330
526
100
AcDbPlotSettings
  1

  2
DWFx ePlot (XPS Compatible).pc3
  4
ANSI_A_(8.50_x_11.00_Inches)
  6

 40
5.8
 41
17.8
 42
5.8
 43
17.8
 44
215.9
 45
279.4
 46
0.0
 47
0.0
 48
0.0
 49
0.0
140
0.0
141
0.0
142
1.0
143
14.53
 70
11952
 72
0
 73
1
 74
0
  7

 75
0
147
0.069
148
114.98
149
300.29
100
AcDbLayout
  1
Model
 70
1
 71
0
 10
0.0
 20
0.0
 11
12.0
 21
9.0
 12
0.0
 22
0.0
 32
0.0
 14
0.0
 24
0.0
 34
0.0
 15
0.0
 25
0.0
 35
0.0
146
0.0
 13
0.0
 23
0.0
 33
0.0
 16
1.0
 26
0.0
 36
0.0
 17
0.0
 27
1.0
 37
0.0
 76
0
330
1F
  0
LAYOUT
  5
531
330
526
100
AcDbPlotSettings
  1

  2
DWFx ePlot (XPS Compatible).pc3
  4
ANSI_A_(8.50_x_11.00_Inches)
  6

 40
5.8
 41
17.8
 42
5.8
 43
17.8
 44
215.9
 45
279.4
 46
0.0
 47
0.0
 48
0.0
 49
0.0
140
0.0
141
0.0
142
1.0
143
1.0
 70
688
 72
0
 73
1
 74
5
  7
acad.ctb
 75
16
147
1.0
148
0.0
149
0.0
100
AcDbLayout
  1
Layout1
 70
1
 71
1
 10
-0.7
 20
-0.23
 11
10.3
 21
8.27
 12
0.0
 22
0.0
 32
0.0
 14
0.63
 24
0.8
 34
0.0
 15
9.0
 25
7.2
 35
0.0
146
0.0
 13
0.0
 23
0.0
 33
0.0
 16
1.0
 26
0.0
 36
0.0
 17
0.0
 27
1.0
 37
0.0
 76
0
330
58
  0
ENDSEC
  0
EOF
